<svg id="svg" version="1.1" xmlns="http://www.w3.org/2000/svg" xmlns:xlink="http://www.w3.org/1999/xlink" width="400" height="302.6086956521739" viewBox="0, 0, 400,302.6086956521739"><g id="svgg"><path id="path0" d="M169.341 72.583 C 168.967 72.655,168.660 72.909,168.660 73.147 C 168.660 73.441,168.318 73.581,167.600 73.581 C 166.764 73.581,166.540 73.701,166.540 74.151 C 166.540 74.467,166.270 74.792,165.935 74.880 C 165.143 75.087,164.975 82.967,165.763 82.967 C 166.002 82.967,166.283 83.240,166.389 83.573 C 166.495 83.906,166.761 84.179,166.980 84.179 C 167.199 84.179,167.450 84.451,167.537 84.784 C 167.685 85.350,167.950 85.390,171.537 85.390 C 175.124 85.390,175.389 85.350,175.537 84.784 C 175.624 84.449,175.950 84.179,176.265 84.179 C 176.622 84.179,176.836 83.965,176.836 83.608 C 176.836 83.293,177.106 82.967,177.441 82.880 C 178.323 82.649,178.368 76.021,177.494 75.147 C 177.190 74.843,176.853 74.366,176.746 74.087 C 176.615 73.746,176.203 73.581,175.483 73.581 C 174.777 73.581,174.413 73.439,174.413 73.164 C 174.413 72.493,171.526 72.162,169.341 72.583 M132.400 107.405 C 132.025 107.477,131.718 107.715,131.718 107.934 C 131.718 108.153,131.446 108.403,131.113 108.490 C 130.546 108.639,130.507 108.903,130.507 112.614 C 130.507 116.376,130.538 116.578,131.113 116.578 C 131.517 116.578,131.718 116.780,131.718 117.184 C 131.718 117.588,131.920 117.790,132.324 117.790 C 132.657 117.790,132.930 117.979,132.930 118.211 C 132.930 119.170,137.523 119.302,138.324 118.366 C 138.595 118.049,138.992 117.790,139.204 117.790 C 139.417 117.790,139.591 117.517,139.591 117.184 C 139.591 116.780,139.793 116.578,140.197 116.578 C 141.304 116.578,141.017 108.650,139.905 108.516 C 139.732 108.495,139.387 108.461,139.137 108.441 C 138.887 108.420,138.683 108.213,138.683 107.981 C 138.683 107.247,134.983 106.908,132.400 107.405 M182.589 120.666 C 182.589 120.969,182.286 121.120,181.683 121.120 C 181.105 121.120,180.640 121.340,180.399 121.726 C 180.191 122.059,179.849 122.332,179.640 122.332 C 179.396 122.332,179.258 122.771,179.258 123.543 C 179.258 124.552,179.157 124.754,178.653 124.754 C 178.101 124.754,178.047 124.956,178.047 127.025 C 178.047 129.094,178.101 129.296,178.653 129.296 C 179.157 129.296,179.258 129.498,179.258 130.507 C 179.258 131.337,179.390 131.718,179.677 131.718 C 179.907 131.718,180.167 131.991,180.254 132.324 C 180.373 132.778,180.667 132.930,181.428 132.930 C 182.115 132.930,182.565 133.125,182.821 133.535 C 183.132 134.033,183.528 134.141,185.042 134.141 C 186.630 134.141,186.907 134.057,187.043 133.535 C 187.163 133.076,187.456 132.930,188.254 132.930 C 189.036 132.930,189.346 132.781,189.458 132.352 C 189.541 132.034,189.869 131.706,190.187 131.623 C 190.610 131.513,190.765 131.201,190.765 130.457 C 190.765 129.806,190.961 129.319,191.311 129.101 C 191.728 128.840,191.847 128.410,191.813 127.287 C 191.745 124.973,191.697 124.749,191.294 124.830 C 191.058 124.877,190.881 124.480,190.822 123.770 C 190.770 123.145,190.599 122.634,190.441 122.634 C 190.284 122.634,189.859 122.294,189.497 121.877 C 189.086 121.405,188.518 121.120,187.985 121.120 C 187.428 121.120,187.131 120.963,187.131 120.666 C 187.131 120.303,186.677 120.212,184.860 120.212 C 183.043 120.212,182.589 120.303,182.589 120.666 M147.913 132.340 C 147.810 132.664,147.518 132.930,147.264 132.930 C 147.010 132.930,146.730 133.202,146.643 133.535 C 146.556 133.868,146.297 134.141,146.066 134.141 C 145.789 134.141,145.647 134.500,145.647 135.201 C 145.647 136.059,145.532 136.260,145.042 136.260 C 144.118 136.260,144.101 143.986,145.024 144.279 C 145.410 144.402,145.643 144.793,145.705 145.425 C 145.782 146.216,145.972 146.435,146.783 146.666 C 147.324 146.820,147.767 147.135,147.767 147.366 C 147.767 147.597,148.005 147.873,148.297 147.981 C 148.588 148.088,148.936 148.356,149.069 148.577 C 149.429 149.173,156.803 149.152,157.033 148.554 C 157.122 148.320,157.663 148.041,158.234 147.934 C 158.997 147.791,159.273 147.582,159.273 147.148 C 159.273 146.822,159.463 146.556,159.695 146.556 C 160.158 146.556,160.484 145.919,160.484 145.017 C 160.484 144.638,160.695 144.436,161.090 144.436 C 161.669 144.436,161.696 144.234,161.696 139.894 C 161.696 135.554,161.669 135.352,161.090 135.352 C 160.686 135.352,160.484 135.150,160.484 134.746 C 160.484 134.343,160.283 134.141,159.879 134.141 C 159.475 134.141,159.273 133.939,159.273 133.535 C 159.273 133.131,159.071 132.930,158.668 132.930 C 158.269 132.930,158.062 132.728,158.062 132.340 C 158.062 131.425,148.204 131.425,147.913 132.340 M274.338 178.653 C 274.338 179.227,274.136 179.258,270.434 179.258 C 265.975 179.258,266.162 179.137,266.162 182.018 C 266.162 183.610,266.083 183.849,265.481 184.072 C 265.106 184.210,264.833 184.410,264.875 184.516 C 265.310 185.621,264.890 189.856,264.345 189.856 C 264.012 189.856,263.756 189.958,263.775 190.083 C 264.082 192.027,263.675 195.609,263.147 195.609 C 262.617 195.609,262.544 195.858,262.465 197.956 C 262.405 199.558,262.264 200.281,262.019 200.234 C 261.668 200.167,261.402 201.689,261.239 204.693 C 261.191 205.593,261.037 206.030,260.787 205.980 C 260.506 205.924,260.409 206.641,260.409 208.781 C 260.409 211.456,260.366 211.658,259.803 211.658 C 259.248 211.658,259.198 211.860,259.198 214.080 C 259.198 216.301,259.147 216.503,258.592 216.503 C 258.029 216.503,257.986 216.705,257.986 219.379 C 257.986 222.054,257.944 222.256,257.381 222.256 C 256.832 222.256,256.775 222.458,256.775 224.418 C 256.775 226.128,256.664 226.661,256.245 226.966 C 255.833 227.267,255.682 227.948,255.564 230.028 C 255.475 231.600,255.288 232.666,255.110 232.614 C 254.731 232.503,254.393 234.291,254.370 236.531 C 254.358 237.758,254.225 238.289,253.899 238.414 C 253.551 238.547,253.444 239.119,253.444 240.848 C 253.444 242.842,253.373 243.131,252.839 243.301 C 252.293 243.474,252.233 243.759,252.233 246.198 C 252.233 248.700,252.188 248.902,251.628 248.902 C 251.064 248.902,251.022 249.104,251.022 251.779 C 251.022 254.454,250.979 254.656,250.416 254.656 C 249.867 254.656,249.810 254.452,249.807 252.460 C 249.800 248.939,249.776 248.902,247.476 248.902 C 245.769 248.902,245.494 248.981,245.356 249.508 C 245.210 250.069,244.943 250.114,241.751 250.114 C 238.506 250.114,238.304 250.149,238.304 250.719 C 238.304 251.290,238.102 251.325,234.822 251.325 C 231.929 251.325,231.340 251.402,231.340 251.779 C 231.340 252.107,231.003 252.233,230.129 252.233 C 228.812 252.233,228.408 251.527,229.523 251.173 C 230.030 251.013,230.129 250.715,230.129 249.357 C 230.129 247.998,230.228 247.700,230.734 247.540 C 231.231 247.382,231.340 247.082,231.340 245.874 C 231.340 244.667,231.449 244.366,231.945 244.209 C 232.453 244.048,232.551 243.751,232.551 242.372 C 232.551 241.168,232.664 240.727,232.973 240.727 C 233.514 240.727,233.762 240.063,233.762 238.615 C 233.762 237.868,233.923 237.399,234.217 237.286 C 234.544 237.161,234.671 236.647,234.671 235.437 C 234.671 233.964,234.744 233.762,235.276 233.762 C 235.778 233.762,235.882 233.560,235.882 232.586 C 235.882 231.707,236.020 231.374,236.429 231.268 C 236.847 231.158,236.993 230.777,237.052 229.649 C 237.103 228.650,237.319 227.996,237.716 227.625 C 238.129 227.241,238.304 226.674,238.304 225.726 C 238.304 224.727,238.423 224.375,238.759 224.375 C 239.008 224.375,239.221 224.341,239.232 224.300 C 239.242 224.258,239.325 223.543,239.416 222.710 C 239.517 221.791,239.807 220.983,240.154 220.654 C 240.545 220.285,240.727 219.694,240.727 218.794 C 240.727 217.902,240.873 217.420,241.181 217.302 C 241.499 217.179,241.635 216.683,241.635 215.639 C 241.635 214.406,241.739 214.124,242.241 213.993 C 242.755 213.858,242.846 213.579,242.846 212.140 C 242.846 210.648,242.919 210.447,243.452 210.447 C 243.983 210.447,244.058 210.245,244.058 208.817 C 244.058 207.441,244.152 207.162,244.663 207.028 C 245.178 206.894,245.269 206.615,245.269 205.176 C 245.269 203.930,245.380 203.482,245.691 203.482 C 246.155 203.482,246.480 202.845,246.480 201.934 C 246.480 201.609,246.684 201.265,246.934 201.169 C 247.257 201.046,247.388 200.542,247.388 199.435 C 247.388 198.203,247.516 197.795,247.994 197.496 C 248.454 197.209,248.600 196.790,248.600 195.758 C 248.600 194.798,248.723 194.398,249.021 194.398 C 249.718 194.398,249.811 193.671,249.811 188.205 L 249.811 182.969 248.576 182.772 C 246.932 182.509,244.437 182.860,244.237 183.383 C 244.114 183.703,243.292 183.800,240.708 183.800 C 237.594 183.800,237.327 183.846,237.181 184.406 C 237.034 184.967,236.768 185.011,233.558 185.011 C 231.652 185.011,230.160 185.120,230.242 185.253 C 230.690 185.977,229.773 186.196,226.118 186.240 C 222.637 186.283,222.259 186.341,222.094 186.860 C 221.930 187.377,221.585 187.434,218.616 187.434 L 215.319 187.434 215.140 188.418 C 215.042 188.959,215.002 191.787,215.051 194.701 L 215.140 200.000 219.633 200.084 C 223.926 200.164,224.132 200.141,224.286 199.554 C 224.435 198.984,224.686 198.940,227.770 198.940 C 230.839 198.940,231.106 198.894,231.252 198.335 C 231.376 197.860,231.665 197.729,232.586 197.729 L 233.762 197.729 233.762 199.546 C 233.762 201.161,233.695 201.363,233.157 201.363 C 232.625 201.363,232.551 201.564,232.551 203.028 C 232.551 204.492,232.478 204.693,231.945 204.693 C 231.407 204.693,231.340 204.895,231.340 206.510 C 231.340 208.125,231.273 208.327,230.734 208.327 C 230.236 208.327,230.129 208.529,230.129 209.465 C 230.129 210.233,229.951 210.714,229.584 210.944 C 229.223 211.169,229.014 211.721,228.963 212.584 C 228.879 214.012,228.702 214.473,228.328 214.241 C 228.066 214.079,227.706 215.502,227.706 216.701 C 227.706 217.102,227.502 217.508,227.252 217.604 C 226.926 217.729,226.798 218.239,226.798 219.412 C 226.798 220.843,226.723 221.045,226.192 221.045 C 225.663 221.045,225.587 221.247,225.587 222.637 C 225.587 223.902,225.462 224.308,224.981 224.608 C 224.507 224.904,224.375 225.314,224.375 226.498 C 224.375 227.807,224.295 228.009,223.770 228.009 C 223.239 228.009,223.164 228.211,223.164 229.654 C 223.164 231.033,223.066 231.330,222.559 231.491 C 222.053 231.652,221.953 231.949,221.953 233.293 C 221.953 234.648,221.857 234.928,221.347 235.061 C 220.842 235.193,220.742 235.474,220.742 236.762 C 220.742 237.931,220.632 238.304,220.288 238.304 C 219.960 238.304,219.833 238.641,219.833 239.516 C 219.833 240.349,219.702 240.727,219.412 240.727 C 218.853 240.727,218.622 241.397,218.622 243.022 C 218.622 244.002,218.502 244.360,218.174 244.360 C 217.703 244.360,217.478 245.017,217.341 246.783 C 217.296 247.366,217.139 247.797,216.991 247.741 C 216.522 247.564,216.209 248.402,216.204 249.851 C 216.201 250.997,216.089 251.283,215.594 251.412 C 215.096 251.543,214.989 251.826,214.989 253.004 C 214.989 253.986,214.831 254.552,214.490 254.802 C 213.894 255.238,213.557 261.243,213.915 265.062 L 214.132 267.373 216.072 267.373 C 217.684 267.373,218.075 267.271,218.390 266.768 C 218.730 266.223,219.096 266.162,222.026 266.162 C 225.210 266.162,225.463 266.086,225.320 265.178 C 225.300 265.053,226.855 264.951,228.776 264.951 C 231.600 264.951,232.301 264.864,232.442 264.497 C 232.581 264.133,233.244 264.042,235.752 264.042 C 238.579 264.042,238.921 263.983,239.213 263.437 C 239.510 262.881,239.847 262.831,243.340 262.831 C 246.888 262.831,247.153 262.791,247.301 262.226 C 247.447 261.665,247.714 261.620,250.906 261.620 C 254.151 261.620,254.353 261.585,254.353 261.014 C 254.353 260.444,254.555 260.409,257.835 260.409 C 261.115 260.409,261.317 260.374,261.317 259.803 C 261.317 259.399,261.519 259.198,261.923 259.198 C 262.411 259.198,262.528 258.996,262.528 258.158 C 262.528 257.385,262.683 257.070,263.134 256.927 C 263.677 256.754,263.740 256.468,263.740 254.181 C 263.740 252.031,263.835 251.532,264.345 251.022 C 264.856 250.511,264.951 250.013,264.951 247.843 C 264.951 245.844,265.045 245.269,265.373 245.269 C 265.831 245.269,266.162 244.634,266.162 243.754 C 266.162 243.379,266.465 243.131,267.091 242.993 C 267.602 242.881,268.093 242.598,268.183 242.364 C 268.310 242.034,269.095 241.938,271.673 241.938 C 274.745 241.938,275.012 241.892,275.158 241.332 C 275.294 240.813,275.571 240.727,277.098 240.727 L 278.880 240.727 278.880 242.420 C 278.880 243.860,278.971 244.138,279.485 244.273 C 280.034 244.416,280.091 244.686,280.091 247.149 C 280.091 249.613,280.148 249.882,280.696 250.026 C 281.248 250.170,281.302 250.439,281.302 253.025 L 281.302 255.867 286.110 255.867 C 290.738 255.867,292.137 255.599,291.393 254.855 C 291.283 254.745,292.034 254.656,293.061 254.656 L 294.928 254.656 294.928 252.385 C 294.928 250.568,294.837 250.114,294.474 250.114 C 294.117 250.114,294.020 249.696,294.020 248.170 C 294.020 245.956,293.833 245.269,293.230 245.269 C 292.908 245.269,292.803 244.716,292.787 242.922 C 292.765 240.464,292.529 239.404,292.040 239.569 C 291.876 239.624,291.709 238.691,291.659 237.440 C 291.582 235.526,291.486 235.191,290.978 235.058 C 290.458 234.922,290.386 234.631,290.386 232.667 C 290.386 230.633,290.331 230.431,289.780 230.431 C 289.223 230.431,289.175 230.230,289.175 227.879 C 289.175 226.014,289.053 225.205,288.721 224.873 C 288.418 224.570,288.266 223.813,288.266 222.605 C 288.266 220.517,288.072 219.833,287.477 219.833 C 287.156 219.833,287.055 219.320,287.055 217.686 C 287.055 215.792,286.983 215.519,286.450 215.379 C 285.918 215.240,285.839 214.949,285.806 212.985 C 285.757 210.061,285.775 210.155,285.163 209.708 C 284.743 209.400,284.633 208.866,284.633 207.130 C 284.633 205.194,284.562 204.921,284.027 204.781 C 283.491 204.641,283.422 204.368,283.422 202.387 C 283.422 200.353,283.367 200.151,282.816 200.151 C 282.253 200.151,282.210 199.950,282.210 197.275 C 282.210 194.920,282.128 194.398,281.756 194.398 C 281.404 194.398,281.302 193.997,281.302 192.606 C 281.302 190.540,281.106 189.856,280.513 189.856 C 280.196 189.856,280.091 189.372,280.091 187.913 C 280.091 185.698,279.904 185.011,279.301 185.011 C 278.979 185.011,278.875 184.458,278.858 182.665 C 278.836 180.207,278.600 179.147,278.111 179.311 C 277.951 179.365,277.776 179.103,277.723 178.728 C 277.584 177.748,274.338 177.676,274.338 178.653 M208.123 189.052 C 207.933 189.383,207.005 189.515,204.288 189.600 C 201.315 189.692,200.638 189.801,200.319 190.238 C 199.994 190.682,199.422 190.765,196.683 190.765 C 193.688 190.765,193.421 190.812,193.275 191.370 C 193.128 191.931,192.862 191.976,189.669 191.976 C 186.424 191.976,186.223 192.011,186.223 192.581 C 186.223 193.152,186.021 193.187,182.740 193.187 C 179.460 193.187,179.258 193.222,179.258 193.793 C 179.258 194.196,179.056 194.398,178.653 194.398 C 177.955 194.398,177.679 206.550,178.367 206.975 C 178.877 207.291,180.167 206.845,180.167 206.353 C 180.167 205.983,180.775 205.905,183.649 205.905 C 186.929 205.905,187.131 205.870,187.131 205.299 C 187.131 204.724,187.333 204.693,191.096 204.693 C 194.806 204.693,195.071 204.655,195.219 204.088 C 195.424 203.305,196.518 203.275,196.518 204.052 C 196.518 204.368,196.247 204.694,195.912 204.781 C 195.400 204.915,195.307 205.194,195.307 206.598 C 195.307 208.002,195.214 208.281,194.701 208.415 C 194.195 208.547,194.095 208.828,194.095 210.115 C 194.095 211.285,193.985 211.658,193.641 211.658 C 193.288 211.658,193.187 212.062,193.187 213.475 C 193.187 215.090,193.120 215.291,192.581 215.291 C 192.049 215.291,191.976 215.493,191.976 216.957 C 191.976 218.404,191.899 218.622,191.388 218.622 C 190.912 218.622,190.782 218.869,190.706 219.909 C 190.641 220.810,190.477 221.196,190.159 221.196 C 189.822 221.196,189.681 221.623,189.611 222.845 C 189.546 223.992,189.357 224.607,188.991 224.864 C 188.657 225.098,188.436 225.707,188.387 226.524 C 188.304 227.941,188.126 228.401,187.753 228.170 C 187.490 228.008,187.131 229.430,187.131 230.630 C 187.131 231.031,186.927 231.437,186.677 231.533 C 186.351 231.658,186.223 232.168,186.223 233.340 C 186.223 234.772,186.148 234.974,185.617 234.974 C 185.086 234.974,185.011 235.175,185.011 236.604 C 185.011 237.979,184.917 238.258,184.406 238.392 C 183.891 238.527,183.800 238.805,183.800 240.244 C 183.800 241.736,183.728 241.938,183.195 241.938 C 182.662 241.938,182.589 242.140,182.589 243.603 C 182.589 244.825,182.477 245.269,182.167 245.269 C 181.611 245.269,181.378 245.938,181.378 247.529 C 181.378 248.577,181.259 248.863,180.772 248.990 C 180.267 249.122,180.167 249.403,180.167 250.691 C 180.167 251.860,180.057 252.233,179.712 252.233 C 179.384 252.233,179.258 252.570,179.258 253.444 C 179.258 254.278,179.127 254.656,178.836 254.656 C 178.277 254.656,178.047 255.326,178.047 256.951 C 178.047 257.893,177.922 258.289,177.625 258.289 C 176.909 258.289,176.836 259.026,176.836 266.187 L 176.836 273.126 179.107 273.126 C 181.176 273.126,181.378 273.073,181.378 272.521 C 181.378 271.950,181.580 271.915,184.860 271.915 C 187.753 271.915,188.342 271.838,188.342 271.461 C 188.342 271.085,188.913 271.007,191.659 271.007 C 194.814 271.007,196.692 270.625,196.339 270.054 C 196.251 269.912,197.767 269.796,199.708 269.796 C 202.981 269.796,203.248 269.752,203.394 269.190 C 203.541 268.629,203.807 268.584,207.000 268.584 C 210.245 268.584,210.447 268.549,210.447 267.979 C 210.447 267.575,210.648 267.373,211.052 267.373 C 211.673 267.373,211.992 256.550,211.409 255.259 C 211.103 254.580,209.593 254.613,209.374 255.303 C 209.218 255.794,203.630 256.225,201.590 255.903 C 201.465 255.883,201.363 256.139,201.363 256.472 C 201.363 257.042,201.161 257.078,197.989 257.078 C 195.447 257.078,194.534 257.183,194.280 257.505 C 194.095 257.740,193.195 258.012,192.279 258.109 C 191.256 258.218,190.847 258.188,191.219 258.030 C 191.866 257.756,191.880 257.715,191.938 255.867 C 191.963 255.051,192.114 254.656,192.398 254.656 C 192.939 254.656,193.187 253.992,193.187 252.544 C 193.187 251.797,193.347 251.328,193.641 251.215 C 193.969 251.089,194.095 250.576,194.095 249.366 C 194.095 247.893,194.168 247.691,194.701 247.691 C 195.232 247.691,195.307 247.489,195.307 246.061 C 195.307 244.686,195.401 244.406,195.912 244.273 C 196.370 244.153,196.518 243.860,196.518 243.073 C 196.518 242.416,196.741 241.829,197.123 241.484 C 197.548 241.100,197.729 240.551,197.729 239.652 C 197.729 238.807,197.880 238.311,198.171 238.200 C 198.435 238.098,198.695 237.406,198.819 236.476 C 198.934 235.607,199.207 234.852,199.437 234.764 C 199.712 234.658,199.849 234.076,199.849 233.008 C 199.849 231.665,199.945 231.385,200.454 231.252 C 200.957 231.121,201.060 230.839,201.060 229.587 C 201.060 228.334,201.162 228.053,201.665 227.921 C 202.180 227.787,202.271 227.508,202.271 226.069 C 202.271 224.577,202.343 224.375,202.877 224.375 C 203.407 224.375,203.482 224.174,203.482 222.745 C 203.482 221.370,203.577 221.091,204.088 220.957 C 204.602 220.822,204.693 220.544,204.693 219.105 C 204.693 217.859,204.805 217.411,205.115 217.411 C 205.660 217.411,205.905 216.746,205.905 215.267 C 205.905 214.414,206.032 214.080,206.359 214.080 C 206.687 214.080,206.813 213.744,206.813 212.869 C 206.813 212.036,206.945 211.658,207.235 211.658 C 207.798 211.658,208.024 210.986,208.024 209.312 C 208.024 208.548,208.114 208.013,208.223 208.123 C 208.697 208.596,209.235 207.557,209.235 206.170 C 209.235 205.110,209.354 204.693,209.657 204.693 C 210.198 204.693,210.447 204.030,210.447 202.584 C 210.447 201.684,210.580 201.398,211.059 201.273 C 211.651 201.118,211.668 200.915,211.588 194.955 L 211.506 188.796 209.940 188.706 C 208.819 188.641,208.303 188.739,208.123 189.052 M164.118 196.064 C 164.118 196.426,163.668 196.518,161.888 196.518 L 159.658 196.518 159.466 197.923 C 159.221 199.711,159.219 273.953,159.464 274.868 C 159.729 275.856,165.890 275.936,166.147 274.954 C 166.286 274.422,166.614 274.350,169.223 274.272 L 172.142 274.186 172.219 234.898 L 172.296 195.609 168.207 195.609 C 164.774 195.609,164.118 195.682,164.118 196.064 M135.049 200.745 C 135.049 201.335,134.873 201.363,131.133 201.363 C 127.483 201.363,127.204 201.404,127.025 201.968 C 126.848 202.525,126.567 202.574,123.513 202.574 C 120.841 202.574,120.159 202.662,120.019 203.028 C 119.911 203.308,119.451 203.482,118.817 203.482 L 117.790 203.482 117.790 242.998 L 117.790 282.513 120.212 282.513 C 122.231 282.513,122.735 282.412,123.240 281.908 C 123.760 281.388,124.249 281.302,126.697 281.302 C 128.266 281.302,129.765 281.219,130.028 281.118 C 130.456 280.954,130.507 279.365,130.507 266.295 L 130.507 251.655 131.263 250.899 C 131.960 250.202,132.256 250.139,135.069 250.091 C 137.690 250.046,138.169 249.958,138.474 249.470 C 138.748 249.032,139.192 248.902,140.421 248.902 C 141.812 248.902,142.014 248.826,142.014 248.297 C 142.014 247.803,142.215 247.691,143.102 247.691 C 143.935 247.691,144.227 247.549,144.348 247.086 C 144.462 246.651,144.761 246.480,145.408 246.480 C 146.055 246.480,146.354 246.309,146.468 245.874 C 146.556 245.539,146.881 245.269,147.197 245.269 C 147.510 245.269,147.767 245.064,147.767 244.815 C 147.767 244.565,147.984 244.360,148.249 244.360 C 148.515 244.360,148.802 244.092,148.888 243.765 C 148.973 243.437,149.301 243.087,149.616 242.987 C 149.931 242.887,150.189 242.610,150.189 242.372 C 150.189 242.133,150.394 241.938,150.643 241.938 C 150.893 241.938,151.115 241.802,151.136 241.635 C 151.156 241.469,151.207 241.196,151.249 241.030 C 151.291 240.863,151.342 240.454,151.363 240.121 C 151.383 239.788,151.608 239.516,151.862 239.516 C 152.116 239.516,152.448 239.188,152.600 238.788 C 152.753 238.388,153.022 237.971,153.199 237.862 C 153.375 237.752,153.520 237.058,153.520 236.318 C 153.520 235.371,153.645 234.974,153.942 234.974 C 154.632 234.974,154.731 234.249,154.731 229.196 C 154.731 224.577,154.757 224.375,155.337 224.375 C 155.874 224.375,155.942 224.174,155.942 222.583 C 155.942 220.517,155.746 219.833,155.153 219.833 C 154.811 219.833,154.731 218.968,154.731 215.263 C 154.731 210.947,154.698 210.684,154.126 210.534 C 153.624 210.403,153.520 210.121,153.520 208.888 C 153.520 207.891,153.380 207.346,153.096 207.237 C 152.862 207.147,152.603 206.811,152.518 206.489 C 152.434 206.168,152.164 205.905,151.918 205.905 C 151.672 205.905,151.400 205.632,151.313 205.299 C 151.226 204.966,150.953 204.693,150.707 204.693 C 150.461 204.693,150.189 204.421,150.102 204.088 C 150.014 203.755,149.726 203.482,149.461 203.482 C 149.195 203.482,148.978 203.278,148.978 203.028 C 148.978 202.778,148.715 202.574,148.393 202.574 C 148.071 202.574,147.721 202.301,147.615 201.968 C 147.457 201.468,147.157 201.363,145.901 201.363 C 144.659 201.363,144.352 201.257,144.228 200.785 C 143.986 199.857,135.049 199.817,135.049 200.745 M272.697 210.447 C 273.037 210.447,273.126 211.043,273.126 213.323 C 273.126 215.998,273.169 216.200,273.732 216.200 C 274.292 216.200,274.338 216.402,274.338 218.888 C 274.338 220.822,274.456 221.675,274.761 221.928 C 275.045 222.164,275.220 223.126,275.291 224.852 C 275.368 226.722,275.522 227.504,275.852 227.713 C 276.176 227.918,275.900 228.001,274.888 228.004 C 273.738 228.008,273.434 228.124,273.278 228.615 C 273.107 229.153,272.820 229.220,270.684 229.220 L 268.282 229.220 268.282 227.403 C 268.282 225.789,268.349 225.587,268.887 225.587 C 269.450 225.587,269.493 225.385,269.493 222.710 C 269.493 220.035,269.535 219.833,270.098 219.833 C 270.660 219.833,270.704 219.632,270.704 217.030 C 270.704 214.554,270.775 214.182,271.310 213.848 C 271.805 213.538,271.920 213.126,271.939 211.580 C 271.952 210.540,272.032 209.860,272.116 210.068 C 272.200 210.276,272.462 210.447,272.697 210.447 M138.771 213.475 C 138.886 213.916,139.184 214.080,139.866 214.080 C 140.521 214.080,140.802 214.225,140.802 214.563 C 140.802 214.828,141.075 215.117,141.408 215.204 C 141.945 215.344,142.014 215.617,142.014 217.598 C 142.014 219.632,142.068 219.833,142.619 219.833 C 143.195 219.833,143.225 220.035,143.225 223.921 C 143.225 227.807,143.195 228.009,142.619 228.009 C 142.071 228.009,142.014 228.211,142.014 230.138 C 142.014 232.184,141.972 232.305,140.954 233.240 C 140.371 233.775,139.894 234.384,139.894 234.593 C 139.894 234.802,139.621 234.974,139.288 234.974 C 138.885 234.974,138.683 235.175,138.683 235.579 C 138.683 236.084,138.481 236.185,137.472 236.185 C 136.462 236.185,136.260 236.286,136.260 236.790 C 136.260 237.353,136.059 237.396,133.384 237.396 L 130.507 237.396 130.507 225.738 L 130.507 214.080 133.078 214.080 C 135.322 214.080,135.698 214.003,136.028 213.475 C 136.294 213.049,136.734 212.869,137.509 212.869 C 138.358 212.869,138.649 213.009,138.771 213.475 " stroke="none" fill="#14c4f4" fill-rule="evenodd"></path><path id="path1" d="M314.913 15.175 C 314.913 15.700,314.642 15.746,311.554 15.746 C 308.449 15.746,308.183 15.792,308.036 16.351 C 307.890 16.912,307.623 16.957,304.431 16.957 C 301.569 16.957,300.984 17.034,300.984 17.411 C 300.984 17.768,300.530 17.873,298.864 17.903 C 295.551 17.962,295.457 17.981,295.207 18.622 C 294.931 19.329,294.848 47.665,295.119 48.675 C 295.268 49.230,295.515 49.357,296.453 49.357 C 298.205 49.357,298.562 49.121,298.562 47.962 C 298.562 47.136,298.681 46.934,299.167 46.934 C 299.559 46.934,299.773 46.732,299.773 46.364 C 299.773 46.048,300.043 45.723,300.379 45.635 C 300.712 45.548,300.984 45.260,300.984 44.994 C 300.984 44.729,301.188 44.512,301.438 44.512 C 301.756 44.512,301.893 44.192,301.893 43.452 C 301.893 42.594,302.008 42.392,302.498 42.392 C 302.902 42.392,303.104 42.190,303.104 41.787 C 303.104 41.383,303.306 41.181,303.709 41.181 C 304.214 41.181,304.315 40.979,304.315 39.970 C 304.315 38.960,304.416 38.759,304.921 38.759 C 305.257 38.759,305.526 38.557,305.526 38.304 C 305.526 38.055,305.734 37.850,305.988 37.850 C 306.242 37.850,306.579 37.509,306.737 37.093 C 306.896 36.677,307.159 36.336,307.322 36.336 C 307.485 36.336,307.708 35.859,307.817 35.276 C 307.931 34.669,308.196 34.217,308.436 34.217 C 308.668 34.217,308.857 33.944,308.857 33.611 C 308.857 33.207,309.059 33.005,309.463 33.005 C 309.866 33.005,310.068 32.803,310.068 32.400 C 310.068 31.858,310.383 31.653,311.052 31.758 C 311.177 31.778,311.279 31.333,311.279 30.770 C 311.279 30.000,311.430 29.706,311.885 29.587 C 312.218 29.500,312.491 29.227,312.491 28.981 C 312.491 28.735,312.763 28.463,313.096 28.376 C 313.560 28.254,313.702 27.963,313.702 27.129 C 313.702 26.243,313.814 26.041,314.307 26.041 C 314.711 26.041,314.913 25.839,314.913 25.435 C 314.913 25.099,315.115 24.830,315.367 24.830 C 315.619 24.830,315.821 24.561,315.821 24.224 C 315.821 23.820,316.023 23.618,316.427 23.618 C 316.917 23.618,317.033 23.417,317.033 22.559 C 317.033 21.701,317.148 21.499,317.638 21.499 C 318.042 21.499,318.244 21.297,318.244 20.893 C 318.244 20.490,318.446 20.288,318.849 20.288 C 319.253 20.288,319.455 20.086,319.455 19.682 C 319.455 19.346,319.657 19.076,319.909 19.076 C 320.159 19.076,320.380 18.940,320.401 18.774 C 320.422 18.607,320.473 18.335,320.515 18.168 C 320.556 18.002,320.607 17.593,320.628 17.260 C 320.649 16.927,320.871 16.654,321.120 16.654 C 321.439 16.654,321.575 16.333,321.575 15.580 L 321.575 14.506 318.244 14.555 C 315.201 14.600,314.913 14.654,314.913 15.175 M335.894 22.104 C 335.752 22.645,335.481 22.710,333.348 22.710 C 331.163 22.710,330.961 22.761,330.961 23.316 C 330.961 23.848,330.760 23.921,329.296 23.921 C 328.017 23.921,327.631 24.027,327.631 24.375 C 327.631 24.668,327.334 24.831,326.798 24.834 C 325.853 24.840,325.107 25.221,325.258 25.621 C 325.314 25.768,324.923 25.932,324.390 25.983 C 323.749 26.045,323.358 26.276,323.234 26.665 C 323.132 26.988,322.784 27.252,322.463 27.252 C 322.079 27.252,321.877 27.461,321.877 27.858 C 321.877 28.351,321.675 28.463,320.789 28.463 C 319.956 28.463,319.664 28.605,319.543 29.069 C 319.456 29.402,319.183 29.674,318.937 29.674 C 318.691 29.674,318.419 29.947,318.331 30.280 C 318.244 30.615,317.918 30.886,317.603 30.886 C 317.289 30.886,317.033 31.074,317.033 31.305 C 317.033 31.535,316.760 31.795,316.427 31.882 C 316.094 31.969,315.821 32.257,315.821 32.523 C 315.821 32.788,315.617 33.005,315.367 33.005 C 315.115 33.005,314.913 33.274,314.913 33.611 C 314.913 34.015,314.711 34.217,314.307 34.217 C 313.904 34.217,313.702 34.418,313.702 34.822 C 313.702 35.226,313.500 35.428,313.096 35.428 C 312.692 35.428,312.491 35.630,312.491 36.033 C 312.491 36.437,312.289 36.639,311.885 36.639 C 311.481 36.639,311.279 36.841,311.279 37.245 C 311.279 37.581,311.077 37.850,310.825 37.850 C 310.575 37.850,310.354 37.986,310.333 38.153 C 310.312 38.319,310.261 38.592,310.220 38.759 C 310.178 38.925,310.127 39.250,310.106 39.480 C 310.085 39.711,309.796 39.970,309.463 40.057 C 309.100 40.152,308.857 40.470,308.857 40.850 C 308.857 41.198,308.687 41.450,308.478 41.408 C 308.242 41.361,308.065 41.758,308.006 42.468 C 307.922 43.485,307.684 43.753,306.964 43.639 C 306.840 43.619,306.737 44.093,306.737 44.691 C 306.737 45.525,306.596 45.817,306.132 45.938 C 305.621 46.072,305.526 46.351,305.526 47.726 C 305.526 49.155,305.451 49.357,304.921 49.357 C 304.370 49.357,304.315 49.558,304.315 51.592 C 304.315 53.560,304.244 53.847,303.720 53.984 C 302.793 54.226,302.795 68.712,303.722 68.954 C 304.243 69.090,304.315 69.380,304.315 71.345 C 304.315 73.379,304.370 73.581,304.921 73.581 C 305.435 73.581,305.526 73.782,305.526 74.918 C 305.526 76.544,305.757 77.214,306.316 77.214 C 306.585 77.214,306.737 77.552,306.737 78.151 C 306.737 78.833,306.902 79.131,307.343 79.246 C 307.678 79.334,307.949 79.659,307.949 79.975 C 307.949 80.288,308.153 80.545,308.403 80.545 C 308.685 80.545,308.857 80.831,308.857 81.302 C 308.857 81.718,309.129 82.332,309.463 82.665 C 309.796 82.998,310.068 83.411,310.068 83.583 C 310.068 83.754,310.286 83.979,310.553 84.081 C 311.172 84.318,312.491 85.631,312.491 86.009 C 312.491 86.168,312.763 86.298,313.096 86.298 C 313.493 86.298,313.702 86.500,313.702 86.883 C 313.702 87.258,313.945 87.502,314.383 87.564 C 314.838 87.629,315.035 87.837,314.975 88.191 C 314.905 88.610,315.104 88.721,315.924 88.721 C 316.707 88.721,317.001 88.869,317.120 89.326 C 317.242 89.790,317.533 89.932,318.367 89.932 C 319.253 89.932,319.455 90.044,319.455 90.537 C 319.455 90.941,319.657 91.143,320.061 91.143 C 320.394 91.143,320.666 91.335,320.666 91.571 C 320.666 91.832,321.128 92.076,321.854 92.199 C 322.507 92.309,323.116 92.594,323.207 92.831 C 323.320 93.126,323.856 93.263,324.896 93.263 C 326.218 93.263,326.419 93.343,326.419 93.868 C 326.419 94.373,326.621 94.474,327.631 94.474 C 328.640 94.474,328.842 94.575,328.842 95.079 C 328.842 95.567,329.044 95.685,329.881 95.685 C 330.659 95.685,330.970 95.839,331.115 96.299 C 331.222 96.636,331.470 96.893,331.666 96.868 C 333.348 96.661,334.595 96.930,334.595 97.502 C 334.595 97.992,334.797 98.107,335.655 98.107 C 336.359 98.107,336.715 98.249,336.715 98.529 C 336.715 99.018,337.359 99.319,338.405 99.319 C 338.854 99.319,339.137 99.494,339.137 99.773 C 339.137 100.101,339.473 100.227,340.348 100.227 C 341.358 100.227,341.559 100.328,341.559 100.833 C 341.559 101.236,341.761 101.438,342.165 101.438 C 342.569 101.438,342.771 101.640,342.771 102.044 C 342.771 102.377,342.966 102.650,343.204 102.650 C 343.443 102.650,343.725 102.922,343.830 103.255 C 343.936 103.588,344.144 103.861,344.291 103.861 C 344.640 103.861,346.101 105.322,346.101 105.671 C 346.101 105.819,346.374 106.026,346.707 106.132 C 347.040 106.237,347.313 106.519,347.313 106.758 C 347.313 106.996,347.585 107.192,347.918 107.192 C 348.423 107.192,348.524 107.393,348.524 108.403 C 348.524 109.277,348.650 109.614,348.978 109.614 C 349.267 109.614,349.439 109.916,349.450 110.447 C 349.492 112.445,349.752 113.722,350.181 114.036 C 350.973 114.615,350.849 123.034,350.038 123.846 C 349.705 124.179,349.432 124.792,349.432 125.208 C 349.432 125.679,349.261 125.965,348.978 125.965 C 348.661 125.965,348.524 126.285,348.524 127.025 C 348.524 127.793,348.391 128.085,348.041 128.085 C 347.776 128.085,347.489 128.353,347.403 128.680 C 347.317 129.008,346.989 129.358,346.674 129.458 C 346.359 129.558,346.101 129.835,346.101 130.073 C 346.101 130.312,345.894 130.507,345.640 130.507 C 345.386 130.507,345.045 130.856,344.883 131.282 C 344.721 131.709,344.462 131.979,344.307 131.884 C 344.152 131.788,343.938 131.984,343.832 132.320 C 343.725 132.655,343.443 132.930,343.204 132.930 C 342.966 132.930,342.771 133.202,342.771 133.535 C 342.771 134.024,342.569 134.141,341.726 134.141 C 341.088 134.141,340.577 134.327,340.413 134.620 C 340.227 134.952,339.705 135.100,338.719 135.100 C 337.642 135.100,337.205 135.242,336.931 135.680 C 336.397 136.536,333.542 136.517,333.081 135.655 C 332.824 135.174,332.447 135.049,331.254 135.049 C 330.119 135.049,329.750 134.938,329.750 134.595 C 329.750 134.345,329.555 134.141,329.316 134.141 C 329.078 134.141,328.796 133.868,328.690 133.535 C 328.585 133.202,328.312 132.930,328.085 132.930 C 327.857 132.930,327.585 132.657,327.479 132.324 C 327.373 131.991,327.092 131.718,326.853 131.718 C 326.615 131.718,326.419 131.446,326.419 131.113 C 326.419 130.715,326.218 130.507,325.832 130.507 C 325.372 130.507,325.224 130.261,325.151 129.372 C 325.079 128.508,324.930 128.246,324.527 128.278 C 324.033 128.317,323.997 127.718,323.997 119.573 L 323.997 110.825 322.455 110.825 C 321.167 110.825,320.886 110.925,320.754 111.431 C 320.606 111.997,320.341 112.036,316.666 112.036 C 312.991 112.036,312.726 112.076,312.578 112.642 C 312.432 113.203,312.165 113.248,308.973 113.248 C 306.111 113.248,305.526 113.325,305.526 113.702 C 305.526 113.974,305.223 114.171,304.769 114.194 C 304.353 114.215,303.842 114.249,303.634 114.269 C 302.879 114.345,302.950 133.854,303.705 134.052 C 304.243 134.193,304.315 134.461,304.315 136.324 C 304.315 138.182,304.388 138.456,304.921 138.595 C 305.392 138.718,305.526 139.008,305.526 139.905 C 305.526 141.336,305.774 142.014,306.297 142.014 C 306.545 142.014,306.737 142.452,306.795 143.149 C 306.858 143.915,307.037 144.285,307.343 144.285 C 307.593 144.285,307.841 144.591,307.894 144.966 C 307.947 145.341,308.186 145.647,308.424 145.647 C 308.662 145.647,308.857 145.864,308.857 146.130 C 308.857 146.395,309.129 146.684,309.463 146.771 C 309.796 146.858,310.068 147.130,310.068 147.376 C 310.068 147.622,310.341 147.895,310.674 147.982 C 311.007 148.069,311.279 148.329,311.279 148.559 C 311.279 148.790,311.552 148.978,311.885 148.978 C 312.289 148.978,312.491 149.180,312.491 149.584 C 312.491 149.987,312.692 150.189,313.096 150.189 C 313.500 150.189,313.702 150.391,313.702 150.795 C 313.702 151.199,313.904 151.400,314.307 151.400 C 314.711 151.400,314.913 151.602,314.913 152.006 C 314.913 152.496,315.115 152.612,315.973 152.612 C 316.723 152.612,317.033 152.747,317.033 153.075 C 317.033 153.330,317.271 153.629,317.562 153.740 C 317.854 153.850,318.272 154.118,318.492 154.336 C 318.713 154.554,319.563 154.731,320.385 154.731 C 321.675 154.731,321.877 154.813,321.877 155.337 C 321.877 155.889,322.079 155.942,324.148 155.942 C 326.218 155.942,326.419 155.996,326.419 156.548 C 326.419 157.132,326.621 157.154,332.173 157.154 C 337.724 157.154,337.926 157.132,337.926 156.548 C 337.926 155.988,338.128 155.942,340.631 155.942 C 343.069 155.942,343.354 155.883,343.528 155.337 C 343.677 154.867,343.986 154.731,344.911 154.731 C 345.767 154.731,346.101 154.604,346.101 154.277 C 346.101 153.967,346.414 153.822,347.086 153.819 C 348.524 153.813,349.432 153.508,349.432 153.031 C 349.432 152.800,349.705 152.612,350.038 152.612 C 350.442 152.612,350.643 152.410,350.643 152.006 C 350.643 151.501,350.845 151.400,351.855 151.400 C 352.864 151.400,353.066 151.300,353.066 150.795 C 353.066 150.244,353.850 149.978,354.958 150.153 C 355.083 150.173,355.185 149.917,355.185 149.584 C 355.185 149.180,355.387 148.978,355.791 148.978 C 356.124 148.978,356.397 148.783,356.397 148.544 C 356.397 148.306,356.669 148.024,357.002 147.918 C 357.335 147.813,357.608 147.531,357.608 147.292 C 357.608 147.054,357.880 146.858,358.213 146.858 C 358.617 146.858,358.819 146.657,358.819 146.253 C 358.819 145.849,359.021 145.647,359.425 145.647 C 359.828 145.647,360.030 145.445,360.030 145.042 C 360.030 144.638,360.232 144.436,360.636 144.436 C 361.027 144.436,361.241 144.234,361.241 143.866 C 361.241 143.550,361.512 143.225,361.847 143.137 C 362.180 143.050,362.453 142.762,362.453 142.496 C 362.453 142.231,362.657 142.014,362.907 142.014 C 363.224 142.014,363.361 141.694,363.361 140.954 C 363.361 140.096,363.476 139.894,363.967 139.894 C 364.370 139.894,364.572 139.692,364.572 139.288 C 364.572 138.885,364.774 138.683,365.178 138.683 C 365.683 138.683,365.783 138.481,365.783 137.472 C 365.783 136.462,365.884 136.260,366.389 136.260 C 366.793 136.260,366.995 136.059,366.995 135.655 C 366.995 135.322,367.185 135.049,367.417 135.049 C 367.957 135.049,368.206 134.386,368.206 132.940 C 368.206 132.044,368.340 131.754,368.812 131.631 C 369.275 131.509,369.417 131.218,369.417 130.384 C 369.417 129.619,369.552 129.296,369.871 129.296 C 370.243 129.296,370.326 128.774,370.326 126.419 C 370.326 123.745,370.368 123.543,370.931 123.543 C 371.521 123.543,371.537 123.341,371.537 115.973 C 371.537 108.605,371.521 108.403,370.931 108.403 C 370.368 108.403,370.326 108.201,370.326 105.526 C 370.326 103.386,370.229 102.669,369.947 102.725 C 369.691 102.776,369.539 102.278,369.476 101.178 C 369.401 99.871,369.269 99.526,368.795 99.402 C 368.339 99.283,368.206 98.982,368.206 98.072 C 368.206 97.098,368.102 96.896,367.600 96.896 C 367.107 96.896,366.995 96.694,366.995 95.808 C 366.995 94.975,366.853 94.683,366.389 94.562 C 365.934 94.443,365.783 94.149,365.783 93.379 C 365.783 92.556,365.664 92.354,365.178 92.354 C 364.774 92.354,364.572 92.152,364.572 91.749 C 364.572 91.345,364.370 91.143,363.967 91.143 C 363.563 91.143,363.361 90.941,363.361 90.537 C 363.361 90.201,363.159 89.932,362.907 89.932 C 362.657 89.932,362.453 89.715,362.453 89.449 C 362.453 89.184,362.180 88.896,361.847 88.808 C 361.512 88.721,361.241 88.395,361.241 88.080 C 361.241 87.723,361.028 87.509,360.671 87.509 C 360.346 87.509,360.029 87.236,359.935 86.873 C 359.836 86.498,359.628 86.324,359.425 86.450 C 359.222 86.575,359.013 86.402,358.915 86.026 C 358.820 85.664,358.503 85.390,358.178 85.390 C 357.810 85.390,357.608 85.175,357.608 84.784 C 357.608 84.393,357.406 84.179,357.038 84.179 C 356.722 84.179,356.397 83.908,356.309 83.573 C 356.194 83.132,355.896 82.967,355.214 82.967 C 354.479 82.967,354.277 82.837,354.277 82.362 C 354.277 81.958,354.075 81.756,353.671 81.756 C 353.338 81.756,353.066 81.566,353.066 81.334 C 353.066 80.846,352.421 80.545,351.376 80.545 C 350.927 80.545,350.643 80.369,350.643 80.091 C 350.643 79.662,349.972 79.483,348.751 79.585 C 348.409 79.614,348.221 79.416,348.221 79.027 C 348.221 78.545,348.017 78.425,347.197 78.425 C 346.427 78.425,346.133 78.275,346.014 77.820 C 345.879 77.305,345.601 77.214,344.162 77.214 C 342.670 77.214,342.468 77.142,342.468 76.609 C 342.468 76.127,342.266 76.003,341.481 76.003 C 340.822 76.003,340.368 75.802,340.116 75.397 C 339.820 74.923,339.410 74.792,338.226 74.792 C 336.976 74.792,336.715 74.698,336.715 74.251 C 336.715 73.856,336.447 73.690,335.731 73.639 C 335.189 73.600,334.595 73.367,334.411 73.121 C 334.227 72.875,333.647 72.589,333.124 72.484 C 332.601 72.379,332.173 72.106,332.173 71.877 C 332.173 71.648,331.900 71.461,331.567 71.461 C 331.234 71.461,330.961 71.271,330.961 71.039 C 330.961 70.583,330.327 70.250,329.458 70.250 C 329.158 70.250,328.841 69.977,328.754 69.644 C 328.667 69.311,328.394 69.039,328.148 69.039 C 327.902 69.039,327.630 68.766,327.543 68.433 C 327.456 68.100,327.167 67.827,326.902 67.827 C 326.590 67.827,326.419 67.561,326.419 67.073 C 326.419 66.646,326.156 66.154,325.814 65.940 C 325.383 65.671,325.208 65.234,325.208 64.424 C 325.208 63.487,325.101 63.285,324.603 63.285 C 324.027 63.285,323.997 63.084,323.997 59.198 C 323.997 55.312,324.027 55.110,324.603 55.110 C 325.141 55.110,325.208 54.908,325.208 53.293 C 325.208 51.678,325.275 51.476,325.814 51.476 C 326.147 51.476,326.419 51.293,326.419 51.069 C 326.419 50.845,326.692 50.415,327.025 50.114 C 327.358 49.812,327.631 49.246,327.631 48.855 C 327.631 48.347,327.803 48.145,328.236 48.145 C 328.640 48.145,328.842 47.943,328.842 47.540 C 328.842 47.203,329.044 46.934,329.296 46.934 C 329.548 46.934,329.750 46.665,329.750 46.329 C 329.750 45.824,329.952 45.723,330.961 45.723 C 331.793 45.723,332.173 45.591,332.173 45.302 C 332.173 45.064,332.618 44.798,333.203 44.689 C 333.770 44.582,334.311 44.295,334.405 44.049 C 334.505 43.788,334.968 43.603,335.522 43.603 C 336.214 43.603,336.511 43.440,336.627 42.998 C 336.772 42.444,337.040 42.392,339.778 42.392 C 342.569 42.392,342.771 42.433,342.771 42.998 C 342.771 43.488,342.972 43.603,343.830 43.603 C 344.578 43.603,344.890 43.739,344.890 44.065 C 344.890 44.319,345.231 44.656,345.647 44.815 C 346.064 44.973,346.404 45.242,346.404 45.413 C 346.404 45.583,346.593 45.723,346.823 45.723 C 347.054 45.723,347.313 45.995,347.400 46.329 C 347.487 46.662,347.776 46.934,348.041 46.934 C 348.322 46.934,348.524 47.187,348.524 47.540 C 348.524 47.873,348.711 48.145,348.939 48.145 C 349.190 48.145,349.432 48.626,349.549 49.357 C 349.674 50.140,349.901 50.568,350.193 50.568 C 350.570 50.568,350.982 61.140,350.679 63.058 C 350.582 63.676,359.780 63.300,359.943 62.680 C 360.090 62.117,364.337 61.758,367.348 62.054 C 367.626 62.081,367.942 61.825,368.050 61.483 C 368.216 60.958,368.500 60.863,369.892 60.863 L 371.537 60.863 371.537 52.839 C 371.537 45.016,371.521 44.815,370.931 44.815 C 370.376 44.815,370.326 44.613,370.326 42.392 C 370.326 40.441,370.237 39.970,369.871 39.970 C 369.595 39.970,369.417 39.688,369.417 39.251 C 369.417 37.886,369.037 36.639,368.622 36.639 C 368.384 36.639,368.206 36.326,368.206 35.907 C 368.206 34.861,367.905 34.217,367.417 34.217 C 367.185 34.217,366.995 33.944,366.995 33.611 C 366.995 33.207,366.793 33.005,366.389 33.005 C 365.985 33.005,365.783 32.803,365.783 32.400 C 365.783 31.996,365.582 31.794,365.178 31.794 C 364.688 31.794,364.572 31.592,364.572 30.734 C 364.572 29.876,364.457 29.674,363.967 29.674 C 363.425 29.674,363.220 29.360,363.325 28.690 C 363.345 28.565,363.259 28.479,363.134 28.499 C 362.025 28.674,361.241 28.408,361.241 27.858 C 361.241 27.454,361.040 27.252,360.636 27.252 C 360.232 27.252,360.030 27.050,360.030 26.646 C 360.030 26.243,359.828 26.041,359.425 26.041 C 359.092 26.041,358.819 25.848,358.819 25.613 C 358.819 25.350,358.353 25.107,357.608 24.981 C 356.863 24.855,356.397 24.612,356.397 24.349 C 356.397 24.032,355.964 23.921,354.731 23.921 C 353.268 23.921,353.066 23.848,353.066 23.316 C 353.066 22.777,352.864 22.710,351.249 22.710 C 349.634 22.710,349.432 22.643,349.432 22.104 C 349.432 21.517,349.230 21.499,342.742 21.499 C 336.307 21.499,336.046 21.522,335.894 22.104 M283.505 31.331 C 283.315 31.670,282.524 31.790,280.170 31.836 C 277.119 31.896,276.309 32.061,276.507 32.585 C 276.563 32.733,275.062 32.893,273.171 32.940 C 270.047 33.018,269.719 33.080,269.578 33.621 C 269.433 34.176,265.099 34.532,262.150 34.232 C 261.799 34.197,261.620 34.390,261.620 34.803 C 261.620 35.397,261.452 35.428,258.261 35.428 C 255.156 35.428,254.890 35.474,254.743 36.033 C 254.597 36.594,254.330 36.639,251.138 36.639 C 247.893 36.639,247.691 36.674,247.691 37.245 C 247.691 37.815,247.489 37.850,244.209 37.850 C 241.316 37.850,240.727 37.927,240.727 38.304 C 240.727 38.738,237.920 38.940,233.808 38.802 C 233.036 38.776,232.757 38.911,232.638 39.369 C 232.551 39.700,232.224 39.970,231.910 39.970 C 231.353 39.970,231.340 41.537,231.340 106.132 L 231.340 172.294 234.699 172.294 C 237.804 172.294,238.070 172.248,238.217 171.688 C 238.365 171.122,238.630 171.083,242.276 171.083 C 245.975 171.083,246.177 171.051,246.177 170.477 C 246.177 169.906,246.379 169.871,249.688 169.871 C 252.944 169.871,253.210 169.827,253.357 169.266 C 253.503 168.705,253.770 168.660,256.962 168.660 C 259.824 168.660,260.409 168.583,260.409 168.206 C 260.409 167.831,260.974 167.751,263.664 167.748 C 267.297 167.743,268.282 167.575,268.282 166.959 C 268.282 166.635,268.929 166.532,271.158 166.503 C 272.740 166.482,274.171 166.431,274.338 166.389 C 274.504 166.347,274.777 166.296,274.943 166.276 C 275.110 166.255,275.246 166.033,275.246 165.783 C 275.246 165.406,275.835 165.329,278.728 165.329 C 282.009 165.329,282.210 165.294,282.210 164.724 C 282.210 164.153,282.412 164.118,285.696 164.118 L 289.182 164.118 289.103 153.142 L 289.023 142.165 288.168 142.067 C 287.512 141.992,287.275 142.115,287.149 142.597 C 286.995 143.186,286.771 143.225,283.538 143.225 C 280.293 143.225,280.091 143.260,280.091 143.830 C 280.091 144.405,279.889 144.436,276.126 144.436 C 272.416 144.436,272.151 144.475,272.003 145.042 C 271.856 145.602,271.590 145.647,268.398 145.647 C 265.153 145.647,264.951 145.683,264.951 146.253 C 264.951 146.823,264.749 146.858,261.469 146.858 C 258.188 146.858,257.986 146.894,257.986 147.464 C 257.986 148.016,257.785 148.070,255.715 148.070 L 253.444 148.070 253.444 130.053 L 253.444 112.036 256.149 112.036 C 258.588 112.036,258.873 111.977,259.046 111.431 C 259.225 110.866,259.504 110.825,263.134 110.825 C 266.742 110.825,267.044 110.781,267.219 110.229 C 267.390 109.691,267.733 109.625,270.797 109.548 C 273.570 109.478,274.186 109.380,274.186 109.008 C 274.186 108.637,274.803 108.539,277.575 108.469 C 280.640 108.391,280.983 108.326,281.154 107.787 C 281.311 107.291,281.618 107.192,282.992 107.192 L 284.641 107.192 284.561 97.426 L 284.481 87.661 281.756 87.572 C 278.637 87.470,277.668 87.636,277.668 88.272 C 277.668 88.641,277.074 88.721,274.309 88.721 C 271.205 88.721,270.938 88.767,270.792 89.326 C 270.645 89.887,270.379 89.932,267.186 89.932 C 263.941 89.932,263.740 89.967,263.740 90.537 C 263.740 91.112,263.538 91.143,259.824 91.143 C 256.174 91.143,255.895 91.184,255.715 91.749 C 255.572 92.199,255.257 92.354,254.484 92.354 L 253.444 92.354 253.444 74.338 L 253.444 56.321 255.592 56.321 C 257.486 56.321,257.759 56.249,257.899 55.715 C 258.047 55.150,258.312 55.110,261.938 55.110 C 265.552 55.110,265.832 55.068,266.011 54.504 C 266.187 53.947,266.469 53.899,269.542 53.899 C 272.626 53.899,272.892 53.852,273.039 53.293 C 273.185 52.734,273.452 52.687,276.521 52.687 C 279.590 52.687,279.857 52.641,280.003 52.082 C 280.150 51.521,280.416 51.476,283.608 51.476 C 286.470 51.476,287.055 51.399,287.055 51.022 C 287.055 50.705,287.375 50.568,288.115 50.568 L 289.175 50.568 289.175 40.727 L 289.175 30.886 286.465 30.886 C 284.395 30.886,283.696 30.991,283.505 31.331 M157.366 40.161 C 157.249 40.278,157.154 42.395,157.154 44.865 L 157.154 49.357 153.066 49.357 C 149.180 49.357,148.978 49.386,148.978 49.962 C 148.978 50.533,148.776 50.568,145.496 50.568 C 142.215 50.568,142.014 50.603,142.014 51.173 C 142.014 51.725,141.812 51.779,139.743 51.779 C 137.926 51.779,137.472 51.870,137.472 52.233 C 137.472 52.665,136.251 52.867,134.648 52.699 C 134.314 52.665,134.031 52.890,133.932 53.270 C 133.793 53.800,133.531 53.899,132.260 53.899 C 131.008 53.899,130.727 54.001,130.595 54.504 C 130.494 54.888,130.182 55.110,129.740 55.110 C 128.728 55.110,128.085 55.416,128.085 55.899 C 128.085 56.169,127.747 56.321,127.148 56.321 C 126.466 56.321,126.168 56.486,126.053 56.927 C 125.912 57.466,124.910 57.748,123.770 57.568 C 123.645 57.548,123.543 57.805,123.543 58.138 C 123.543 58.542,123.341 58.743,122.937 58.743 C 122.601 58.743,122.332 58.945,122.332 59.198 C 122.332 59.517,122.009 59.652,121.243 59.652 C 120.410 59.652,120.118 59.794,119.997 60.257 C 119.910 60.590,119.659 60.863,119.440 60.863 C 119.221 60.863,118.955 61.136,118.849 61.469 C 118.706 61.919,118.391 62.074,117.618 62.074 C 116.780 62.074,116.578 62.192,116.578 62.680 C 116.578 63.084,116.376 63.285,115.973 63.285 C 115.569 63.285,115.367 63.487,115.367 63.891 C 115.367 64.295,115.165 64.497,114.762 64.497 C 114.428 64.497,114.156 64.698,114.156 64.945 C 114.156 65.192,113.781 65.483,113.323 65.593 C 112.865 65.703,112.247 66.046,111.949 66.356 C 111.651 66.666,111.276 66.919,111.116 66.919 C 110.956 66.919,110.825 67.107,110.825 67.338 C 110.825 67.568,110.553 67.828,110.220 67.915 C 109.886 68.002,109.614 68.275,109.614 68.521 C 109.614 68.767,109.341 69.039,109.008 69.126 C 108.675 69.213,108.403 69.486,108.403 69.732 C 108.403 69.978,108.130 70.250,107.797 70.338 C 107.464 70.425,107.192 70.713,107.192 70.978 C 107.192 71.244,106.993 71.461,106.751 71.461 C 106.487 71.461,106.231 71.886,106.112 72.521 C 105.998 73.128,105.733 73.581,105.492 73.581 C 105.261 73.581,105.072 73.853,105.072 74.186 C 105.072 74.590,104.870 74.792,104.466 74.792 C 104.063 74.792,103.861 74.994,103.861 75.397 C 103.861 75.801,103.659 76.003,103.255 76.003 C 102.864 76.003,102.650 76.205,102.650 76.573 C 102.650 76.889,102.379 77.214,102.044 77.302 C 101.625 77.411,101.438 77.715,101.438 78.286 C 101.438 78.837,101.085 79.444,100.374 80.115 C 99.789 80.667,99.227 81.534,99.125 82.043 C 99.023 82.551,98.753 82.967,98.524 82.967 C 98.240 82.967,98.107 83.353,98.107 84.179 C 98.107 85.175,98.004 85.390,97.520 85.390 C 97.060 85.390,96.912 85.636,96.839 86.525 C 96.767 87.389,96.618 87.651,96.215 87.619 C 95.794 87.585,95.685 87.819,95.685 88.754 C 95.685 89.730,95.581 89.932,95.079 89.932 C 94.542 89.932,94.474 90.134,94.474 91.715 C 94.474 93.227,94.393 93.492,93.944 93.456 C 93.551 93.425,93.389 93.683,93.315 94.458 C 93.260 95.032,93.003 95.657,92.743 95.847 C 92.427 96.078,92.229 96.836,92.147 98.134 C 92.070 99.355,91.861 100.200,91.584 100.412 C 91.255 100.663,91.143 101.449,91.143 103.516 C 91.143 106.081,91.099 106.283,90.537 106.283 C 89.942 106.283,89.932 106.485,89.932 117.790 C 89.932 129.094,89.942 129.296,90.537 129.296 C 91.101 129.296,91.143 129.498,91.143 132.173 C 91.143 134.528,91.225 135.049,91.597 135.049 C 91.887 135.049,92.057 135.350,92.067 135.882 C 92.108 138.166,92.346 139.411,92.787 139.658 C 93.076 139.820,93.263 140.334,93.263 140.969 C 93.263 141.812,93.380 142.014,93.868 142.014 C 94.402 142.014,94.474 142.215,94.474 143.707 C 94.474 145.146,94.565 145.425,95.079 145.560 C 95.539 145.680,95.685 145.973,95.685 146.771 C 95.685 147.569,95.832 147.862,96.291 147.982 C 96.746 148.101,96.896 148.395,96.896 149.165 C 96.896 149.987,97.016 150.189,97.502 150.189 C 98.008 150.189,98.107 150.391,98.107 151.418 C 98.107 152.117,98.232 152.571,98.395 152.470 C 98.812 152.212,99.319 153.205,99.319 154.277 C 99.319 154.527,99.523 154.731,99.773 154.731 C 100.023 154.731,100.227 154.948,100.227 155.214 C 100.227 155.479,100.500 155.768,100.833 155.855 C 101.292 155.975,101.438 156.268,101.438 157.066 C 101.438 157.864,101.585 158.157,102.044 158.277 C 102.379 158.365,102.650 158.690,102.650 159.006 C 102.650 159.374,102.864 159.576,103.255 159.576 C 103.659 159.576,103.861 159.778,103.861 160.182 C 103.861 160.585,104.063 160.787,104.466 160.787 C 104.803 160.787,105.072 160.989,105.072 161.241 C 105.072 161.491,105.259 161.696,105.487 161.696 C 105.739 161.696,105.980 162.180,106.099 162.921 C 106.208 163.602,106.426 164.065,106.590 163.964 C 106.753 163.863,107.045 164.129,107.239 164.555 C 107.433 164.981,107.774 165.329,107.997 165.329 C 108.220 165.329,108.403 165.512,108.403 165.735 C 108.403 165.958,108.751 166.299,109.177 166.493 C 109.603 166.687,109.877 166.966,109.786 167.113 C 109.695 167.260,109.892 167.451,110.223 167.538 C 110.554 167.624,110.825 167.912,110.825 168.178 C 110.825 168.448,111.075 168.660,111.395 168.660 C 111.711 168.660,112.036 168.931,112.124 169.266 C 112.239 169.707,112.537 169.871,113.219 169.871 C 113.954 169.871,114.156 170.002,114.156 170.477 C 114.156 170.881,114.358 171.083,114.762 171.083 C 115.165 171.083,115.367 171.284,115.367 171.688 C 115.367 172.079,115.569 172.294,115.937 172.294 C 116.253 172.294,116.578 172.564,116.666 172.899 C 116.772 173.305,117.079 173.505,117.596 173.505 C 118.342 173.505,119.909 174.745,119.909 175.335 C 119.909 175.494,120.454 175.625,121.120 175.625 C 122.130 175.625,122.332 175.725,122.332 176.230 C 122.332 176.621,122.533 176.836,122.902 176.836 C 123.217 176.836,123.543 177.106,123.631 177.441 C 123.751 177.900,124.044 178.047,124.842 178.047 C 125.640 178.047,125.933 178.193,126.053 178.653 C 126.167 179.087,126.466 179.258,127.113 179.258 C 127.759 179.258,128.059 179.429,128.173 179.864 C 128.307 180.378,128.586 180.469,130.025 180.469 C 131.517 180.469,131.718 180.542,131.718 181.075 C 131.718 181.562,131.920 181.681,132.746 181.681 C 133.380 181.681,133.840 181.854,133.948 182.135 C 134.073 182.463,134.587 182.589,135.797 182.589 C 137.270 182.589,137.472 182.662,137.472 183.195 C 137.472 183.746,137.673 183.800,139.743 183.800 C 141.812 183.800,142.014 183.854,142.014 184.406 C 142.014 184.976,142.215 185.011,145.496 185.011 C 148.776 185.011,148.978 185.046,148.978 185.617 C 148.978 186.209,149.180 186.223,157.735 186.223 C 166.706 186.223,167.449 186.162,167.449 185.433 C 167.449 185.102,168.069 185.011,170.326 185.011 C 173.000 185.011,173.202 184.969,173.202 184.406 C 173.202 183.853,173.404 183.800,175.501 183.800 C 177.546 183.800,177.818 183.733,177.959 183.195 C 178.093 182.684,178.372 182.589,179.748 182.589 C 180.995 182.589,181.378 182.482,181.378 182.135 C 181.378 181.795,181.741 181.679,182.816 181.676 C 184.393 181.671,185.204 181.329,184.881 180.806 C 184.743 180.582,185.044 180.469,185.779 180.469 C 186.630 180.469,186.921 180.330,187.043 179.864 C 187.167 179.389,187.456 179.258,188.377 179.258 C 189.352 179.258,189.553 179.154,189.553 178.653 C 189.553 178.159,189.755 178.047,190.642 178.047 C 191.475 178.047,191.767 177.905,191.888 177.441 C 192.002 177.007,192.301 176.836,192.948 176.836 C 193.595 176.836,193.894 176.665,194.008 176.230 C 194.095 175.895,194.421 175.625,194.736 175.625 C 195.050 175.625,195.307 175.420,195.307 175.170 C 195.307 174.851,195.629 174.716,196.395 174.716 C 197.211 174.716,197.521 174.572,197.634 174.139 C 197.717 173.821,198.045 173.493,198.363 173.410 C 198.680 173.327,198.940 173.042,198.940 172.776 C 198.940 172.502,199.191 172.294,199.521 172.294 C 200.424 172.294,201.060 171.967,201.060 171.504 C 201.060 171.272,201.332 171.083,201.665 171.083 C 202.069 171.083,202.271 170.881,202.271 170.477 C 202.271 170.073,202.473 169.871,202.877 169.871 C 203.280 169.871,203.482 169.669,203.482 169.266 C 203.482 168.862,203.684 168.660,204.088 168.660 C 204.421 168.660,204.693 168.472,204.693 168.241 C 204.693 168.011,204.966 167.751,205.299 167.664 C 205.632 167.577,205.905 167.288,205.905 167.023 C 205.905 166.758,206.109 166.540,206.359 166.540 C 206.611 166.540,206.813 166.271,206.813 165.935 C 206.813 165.531,207.015 165.329,207.419 165.329 C 207.822 165.329,208.024 165.127,208.024 164.724 C 208.024 164.320,208.226 164.118,208.630 164.118 C 209.034 164.118,209.235 163.916,209.235 163.512 C 209.235 163.109,209.437 162.907,209.841 162.907 C 210.232 162.907,210.447 162.705,210.447 162.337 C 210.447 162.021,210.717 161.696,211.052 161.608 C 211.493 161.493,211.658 161.195,211.658 160.513 C 211.658 159.778,211.788 159.576,212.263 159.576 C 212.667 159.576,212.869 159.374,212.869 158.970 C 212.869 158.634,213.071 158.365,213.323 158.365 C 213.576 158.365,213.777 158.096,213.777 157.759 C 213.777 157.356,213.979 157.154,214.383 157.154 C 214.888 157.154,214.989 156.952,214.989 155.942 C 214.989 154.933,215.090 154.731,215.594 154.731 C 215.947 154.731,216.200 154.529,216.200 154.249 C 216.200 153.983,216.472 153.695,216.805 153.608 C 217.255 153.490,217.411 153.195,217.411 152.460 C 217.411 151.726,217.567 151.430,218.017 151.313 C 218.481 151.191,218.622 150.900,218.622 150.066 C 218.622 149.338,218.762 148.978,219.044 148.978 C 219.501 148.978,219.833 148.344,219.833 147.472 C 219.833 147.170,220.038 146.845,220.288 146.749 C 220.569 146.641,220.742 146.180,220.742 145.541 C 220.742 144.761,220.891 144.468,221.347 144.348 C 221.852 144.216,221.953 143.935,221.953 142.668 C 221.953 141.425,222.061 141.112,222.544 140.958 C 223.023 140.806,223.152 140.445,223.225 139.046 C 223.293 137.754,223.430 137.320,223.770 137.320 C 224.122 137.320,224.244 136.844,224.312 135.201 C 224.383 133.502,224.518 132.998,224.994 132.666 C 225.535 132.286,225.587 131.876,225.587 127.932 C 225.587 123.868,225.622 123.604,226.192 123.455 C 226.770 123.304,226.798 123.042,226.798 117.790 C 226.798 112.537,226.770 112.275,226.192 112.124 C 225.624 111.975,225.587 111.711,225.587 107.787 C 225.587 103.369,225.476 102.650,224.797 102.650 C 224.476 102.650,224.375 102.136,224.375 100.502 C 224.375 98.608,224.304 98.335,223.770 98.195 C 223.283 98.068,223.164 97.782,223.164 96.734 C 223.164 95.143,222.931 94.474,222.375 94.474 C 222.065 94.474,221.953 94.030,221.953 92.808 C 221.953 91.345,221.880 91.143,221.347 91.143 C 220.843 91.143,220.742 90.941,220.742 89.932 C 220.742 89.057,220.616 88.721,220.288 88.721 C 220.005 88.721,219.833 88.435,219.833 87.964 C 219.833 87.547,219.561 86.934,219.228 86.601 C 218.895 86.268,218.622 85.642,218.622 85.210 C 218.622 84.679,218.426 84.373,218.017 84.266 C 217.459 84.121,217.248 83.492,217.394 82.414 C 217.424 82.193,217.167 81.939,216.824 81.849 C 216.472 81.757,216.200 81.437,216.200 81.115 C 216.200 80.747,215.985 80.545,215.594 80.545 C 215.104 80.545,214.989 80.343,214.989 79.485 C 214.989 78.627,214.873 78.425,214.383 78.425 C 213.979 78.425,213.777 78.224,213.777 77.820 C 213.777 77.416,213.979 77.214,214.383 77.214 C 214.787 77.214,214.989 77.012,214.989 76.609 C 214.989 76.115,215.191 76.003,216.077 76.003 C 216.910 76.003,217.202 75.861,217.323 75.397 C 217.411 75.062,217.736 74.792,218.052 74.792 C 218.420 74.792,218.622 74.577,218.622 74.186 C 218.622 73.782,218.824 73.581,219.228 73.581 C 219.741 73.581,219.833 73.379,219.833 72.256 C 219.833 70.375,219.518 69.039,219.074 69.039 C 218.864 69.039,218.622 68.766,218.535 68.433 C 218.447 68.100,218.159 67.827,217.894 67.827 C 217.628 67.827,217.411 67.623,217.411 67.373 C 217.411 67.123,217.194 66.919,216.929 66.919 C 216.663 66.919,216.375 66.646,216.288 66.313 C 216.200 65.980,215.928 65.708,215.682 65.708 C 215.436 65.708,215.163 65.435,215.076 65.102 C 214.989 64.767,214.663 64.497,214.348 64.497 C 213.979 64.497,213.777 64.282,213.777 63.891 C 213.777 63.555,213.576 63.285,213.323 63.285 C 213.071 63.285,212.869 63.016,212.869 62.680 C 212.869 62.276,212.667 62.074,212.263 62.074 C 211.860 62.074,211.658 61.872,211.658 61.469 C 211.658 61.065,211.456 60.863,211.052 60.863 C 210.648 60.863,210.447 60.661,210.447 60.257 C 210.447 59.854,210.245 59.652,209.841 59.652 C 209.505 59.652,209.235 59.450,209.235 59.198 C 209.235 58.945,208.966 58.743,208.630 58.743 C 208.226 58.743,208.024 58.542,208.024 58.138 C 208.024 57.734,207.822 57.532,207.419 57.532 C 207.027 57.532,206.813 57.330,206.813 56.962 C 206.813 56.646,206.543 56.321,206.207 56.233 C 205.874 56.146,205.602 55.858,205.602 55.592 C 205.602 55.243,205.310 55.110,204.542 55.110 C 203.697 55.110,203.482 54.991,203.482 54.525 C 203.482 54.152,203.236 53.903,202.801 53.837 C 202.426 53.780,202.153 53.567,202.194 53.365 C 202.238 53.149,201.770 52.917,201.059 52.803 C 200.329 52.687,199.849 52.445,199.849 52.194 C 199.849 51.966,199.576 51.779,199.243 51.779 C 198.839 51.779,198.637 51.577,198.637 51.173 C 198.637 50.683,198.436 50.568,197.578 50.568 C 196.720 50.568,196.518 50.452,196.518 49.962 C 196.518 49.457,196.316 49.357,195.307 49.357 C 194.297 49.357,194.095 49.256,194.095 48.751 C 194.095 48.265,193.894 48.145,193.071 48.145 C 192.301 48.145,192.007 47.995,191.888 47.540 C 191.768 47.081,191.475 46.934,190.677 46.934 C 189.879 46.934,189.586 46.788,189.466 46.329 C 189.333 45.823,189.053 45.723,187.765 45.723 C 186.596 45.723,186.223 45.613,186.223 45.269 C 186.223 44.943,185.890 44.815,185.047 44.815 C 184.125 44.815,183.836 44.683,183.712 44.209 C 183.573 43.676,183.299 43.603,181.441 43.603 C 179.583 43.603,179.310 43.530,179.170 42.998 C 179.030 42.459,178.757 42.392,176.713 42.392 C 174.615 42.392,174.413 42.339,174.413 41.787 C 174.413 41.216,174.211 41.181,170.966 41.181 C 167.827 41.181,167.506 41.129,167.368 40.602 C 167.212 40.006,157.930 39.597,157.366 40.161 M165.329 61.469 C 165.329 62.031,165.531 62.074,168.171 62.074 C 170.757 62.074,171.026 62.128,171.170 62.680 C 171.310 63.212,171.583 63.285,173.441 63.285 C 175.299 63.285,175.573 63.358,175.712 63.891 C 175.834 64.355,176.125 64.497,176.959 64.497 C 177.724 64.497,178.047 64.631,178.047 64.951 C 178.047 65.299,178.434 65.405,179.712 65.405 C 181.176 65.405,181.378 65.478,181.378 66.011 C 181.378 66.515,181.580 66.616,182.589 66.616 C 183.598 66.616,183.800 66.717,183.800 67.222 C 183.800 67.726,184.002 67.827,185.011 67.827 C 186.021 67.827,186.223 67.928,186.223 68.433 C 186.223 68.766,186.359 69.039,186.525 69.039 C 186.692 69.039,187.101 69.311,187.434 69.644 C 187.767 69.977,188.364 70.250,188.761 70.250 C 189.228 70.250,189.539 70.464,189.641 70.855 C 189.728 71.188,190.017 71.461,190.282 71.461 C 190.547 71.461,190.765 71.665,190.765 71.915 C 190.765 72.168,191.034 72.369,191.370 72.369 C 191.912 72.369,192.117 72.684,192.012 73.354 C 191.992 73.478,192.078 73.564,192.203 73.545 C 193.311 73.370,194.095 73.635,194.095 74.186 C 194.095 74.590,194.297 74.792,194.701 74.792 C 195.105 74.792,195.307 74.994,195.307 75.397 C 195.307 75.801,195.508 76.003,195.912 76.003 C 196.316 76.003,196.518 76.205,196.518 76.609 C 196.518 77.012,196.720 77.214,197.123 77.214 C 197.476 77.214,197.729 77.416,197.729 77.697 C 197.729 77.962,198.002 78.251,198.335 78.338 C 198.668 78.425,198.940 78.685,198.940 78.915 C 198.940 79.145,199.213 79.334,199.546 79.334 C 199.950 79.334,200.151 79.536,200.151 79.939 C 200.151 80.276,200.353 80.545,200.606 80.545 C 201.080 80.545,201.112 80.625,201.173 81.983 C 201.207 82.716,201.089 82.828,200.193 82.913 C 199.492 82.981,199.127 83.193,199.022 83.595 C 198.938 83.916,198.613 84.179,198.299 84.179 C 197.931 84.179,197.729 84.393,197.729 84.784 C 197.729 85.188,197.527 85.390,197.123 85.390 C 196.787 85.390,196.518 85.592,196.518 85.844 C 196.518 86.094,196.301 86.298,196.035 86.298 C 195.770 86.298,195.481 86.571,195.394 86.904 C 195.307 87.237,194.990 87.509,194.690 87.509 C 193.821 87.509,193.187 87.842,193.187 88.299 C 193.187 88.531,192.914 88.721,192.581 88.721 C 192.178 88.721,191.976 88.923,191.976 89.326 C 191.976 89.730,191.774 89.932,191.370 89.932 C 190.966 89.932,190.765 90.134,190.765 90.537 C 190.765 91.031,190.563 91.143,189.676 91.143 C 188.843 91.143,188.551 91.285,188.430 91.749 C 188.343 92.082,188.136 92.354,187.971 92.354 C 187.533 92.354,186.234 93.652,186.228 94.095 C 186.225 94.304,185.950 94.474,185.617 94.474 C 185.213 94.474,185.011 94.676,185.011 95.079 C 185.011 95.657,184.429 95.863,183.247 95.702 C 183.026 95.672,182.775 95.916,182.689 96.244 C 182.603 96.572,182.273 96.908,181.955 96.991 C 181.638 97.074,181.378 97.344,181.378 97.590 C 181.378 97.836,181.088 98.113,180.733 98.206 C 180.302 98.318,180.148 98.531,180.269 98.846 C 180.415 99.226,180.211 99.319,179.231 99.319 C 178.498 99.319,178.086 99.439,178.198 99.620 C 178.300 99.786,178.036 100.080,177.610 100.274 C 177.184 100.468,176.836 100.810,176.836 101.033 C 176.836 101.256,176.563 101.438,176.230 101.438 C 175.826 101.438,175.625 101.640,175.625 102.044 C 175.625 102.448,175.423 102.650,175.019 102.650 C 174.615 102.650,174.413 102.851,174.413 103.255 C 174.413 103.745,174.211 103.861,173.354 103.861 C 172.771 103.861,172.310 103.963,172.330 104.088 C 172.435 104.757,172.230 105.072,171.688 105.072 C 171.284 105.072,171.083 105.274,171.083 105.678 C 171.083 106.081,170.881 106.283,170.477 106.283 C 170.144 106.283,169.871 106.472,169.871 106.704 C 169.871 106.942,169.425 107.208,168.841 107.317 C 168.274 107.424,167.733 107.711,167.639 107.957 C 167.545 108.202,167.259 108.403,167.004 108.403 C 166.742 108.403,166.540 108.666,166.540 109.008 C 166.540 109.412,166.339 109.614,165.935 109.614 C 165.531 109.614,165.329 109.816,165.329 110.220 C 165.329 110.623,165.127 110.825,164.724 110.825 C 164.320 110.825,164.118 111.027,164.118 111.431 C 164.118 111.935,163.916 112.036,162.907 112.036 C 161.898 112.036,161.696 112.137,161.696 112.642 C 161.696 113.051,161.494 113.248,161.072 113.248 C 160.707 113.248,160.532 113.382,160.648 113.571 C 160.758 113.749,160.562 113.969,160.212 114.060 C 159.850 114.155,159.576 114.472,159.576 114.797 C 159.576 115.198,159.359 115.367,158.844 115.367 C 157.378 115.367,157.154 115.633,157.154 117.368 L 157.154 119.001 158.340 119.001 C 159.819 119.001,160.484 118.756,160.484 118.211 C 160.484 117.929,160.844 117.790,161.573 117.790 C 162.406 117.790,162.698 117.648,162.819 117.184 C 162.939 116.725,163.232 116.578,164.030 116.578 C 164.829 116.578,165.121 116.432,165.242 115.973 C 165.361 115.518,165.655 115.367,166.424 115.367 C 167.247 115.367,167.449 115.248,167.449 114.762 C 167.449 114.257,167.651 114.156,168.660 114.156 C 169.535 114.156,169.871 114.030,169.871 113.702 C 169.871 113.392,170.184 113.246,170.855 113.243 C 172.294 113.237,173.202 112.932,173.202 112.455 C 173.202 112.225,173.475 112.019,173.808 111.998 C 174.141 111.978,174.550 111.927,174.716 111.885 C 174.883 111.843,175.155 111.792,175.322 111.771 C 175.488 111.751,175.625 111.529,175.625 111.279 C 175.625 110.960,175.947 110.825,176.713 110.825 C 177.546 110.825,177.838 110.683,177.959 110.220 C 178.078 109.764,178.372 109.614,179.142 109.614 C 179.965 109.614,180.167 109.495,180.167 109.008 C 180.167 108.504,180.368 108.403,181.378 108.403 C 182.387 108.403,182.589 108.302,182.589 107.797 C 182.589 107.292,182.791 107.192,183.800 107.192 C 184.675 107.192,185.011 107.065,185.011 106.737 C 185.011 106.433,185.336 106.273,185.995 106.253 C 187.369 106.211,188.395 105.885,188.284 105.526 C 188.233 105.360,188.638 105.180,189.185 105.128 C 189.762 105.072,190.332 104.786,190.544 104.446 C 190.782 104.066,191.249 103.861,191.877 103.861 C 192.577 103.861,192.896 103.694,193.036 103.255 C 193.179 102.804,193.494 102.650,194.267 102.650 C 195.105 102.650,195.307 102.532,195.307 102.044 C 195.307 101.551,195.508 101.438,196.395 101.438 C 197.228 101.438,197.520 101.297,197.641 100.833 C 197.760 100.378,198.054 100.227,198.824 100.227 C 199.533 100.227,199.849 100.087,199.849 99.773 C 199.849 99.120,200.953 99.212,201.665 99.924 C 202.040 100.299,202.271 100.934,202.271 101.590 C 202.271 102.448,202.386 102.650,202.877 102.650 C 203.410 102.650,203.482 102.851,203.482 104.343 C 203.482 105.782,203.573 106.061,204.088 106.195 C 204.624 106.336,205.051 110.680,204.729 112.718 C 204.710 112.843,204.966 112.945,205.299 112.945 C 206.241 112.945,206.241 122.184,205.299 122.483 C 204.742 122.660,204.693 122.941,204.693 125.986 C 204.693 129.094,204.656 129.296,204.088 129.296 C 203.549 129.296,203.482 129.498,203.482 131.113 C 203.482 132.728,203.415 132.930,202.877 132.930 C 202.378 132.930,202.271 133.131,202.271 134.068 C 202.271 134.878,202.097 135.315,201.665 135.585 C 201.206 135.872,201.060 136.291,201.060 137.323 C 201.060 138.330,200.942 138.683,200.606 138.683 C 200.278 138.683,200.151 139.019,200.151 139.894 C 200.151 140.903,200.050 141.105,199.546 141.105 C 199.209 141.105,198.940 141.307,198.940 141.559 C 198.940 141.809,198.750 142.014,198.518 142.014 C 198.030 142.014,197.729 142.658,197.729 143.704 C 197.729 144.234,197.562 144.436,197.123 144.436 C 196.720 144.436,196.518 144.638,196.518 145.042 C 196.518 145.445,196.316 145.647,195.912 145.647 C 195.508 145.647,195.307 145.849,195.307 146.253 C 195.307 146.586,195.108 146.858,194.866 146.858 C 194.602 146.858,194.346 147.284,194.227 147.918 C 194.113 148.525,193.848 148.978,193.607 148.978 C 193.376 148.978,193.187 149.251,193.187 149.584 C 193.187 149.987,192.985 150.189,192.581 150.189 C 192.178 150.189,191.976 150.391,191.976 150.795 C 191.976 151.199,191.774 151.400,191.370 151.400 C 190.966 151.400,190.765 151.602,190.765 152.006 C 190.765 152.410,190.563 152.612,190.159 152.612 C 189.755 152.612,189.553 152.814,189.553 153.217 C 189.553 153.708,189.352 153.823,188.494 153.823 C 187.636 153.823,187.434 153.938,187.434 154.428 C 187.434 154.832,187.232 155.034,186.828 155.034 C 186.492 155.034,186.223 155.236,186.223 155.488 C 186.223 155.741,185.953 155.942,185.617 155.942 C 185.220 155.942,185.011 156.144,185.011 156.530 C 185.011 156.990,184.765 157.137,183.876 157.211 C 183.012 157.283,182.750 157.432,182.782 157.835 C 182.812 158.203,182.604 158.365,182.101 158.365 C 181.580 158.365,181.378 158.534,181.378 158.970 C 181.378 159.461,181.176 159.576,180.318 159.576 C 179.460 159.576,179.258 159.691,179.258 160.182 C 179.258 160.686,179.056 160.787,178.047 160.787 C 177.218 160.787,176.836 160.919,176.836 161.206 C 176.836 161.666,175.936 161.988,174.631 161.994 C 174.165 161.997,173.711 162.201,173.614 162.453 C 173.504 162.740,173.035 162.908,172.337 162.911 C 170.786 162.917,169.871 163.209,169.871 163.699 C 169.871 164.019,169.332 164.118,167.600 164.118 C 165.531 164.118,165.329 164.172,165.329 164.724 C 165.329 165.312,165.127 165.329,158.376 165.329 C 151.732 165.329,151.407 165.302,151.098 164.724 C 150.813 164.192,150.464 164.118,148.231 164.118 C 145.954 164.118,145.668 164.055,145.496 163.512 C 145.335 163.005,145.038 162.907,143.659 162.907 C 142.398 162.907,142.014 162.801,142.014 162.453 C 142.014 162.133,141.691 161.998,140.925 161.998 C 140.092 161.998,139.800 161.857,139.679 161.393 C 139.561 160.941,139.266 160.787,138.517 160.787 C 137.788 160.787,137.461 160.626,137.326 160.199 C 137.194 159.783,136.812 159.584,136.018 159.518 C 135.266 159.455,134.898 159.276,134.898 158.970 C 134.898 158.667,134.532 158.486,133.793 158.424 C 133.000 158.358,132.645 158.166,132.535 157.743 C 132.450 157.419,132.164 157.154,131.898 157.154 C 131.633 157.154,131.416 156.964,131.416 156.732 C 131.416 156.269,130.779 155.942,129.877 155.942 C 129.557 155.942,129.296 155.738,129.296 155.488 C 129.296 155.236,129.027 155.034,128.690 155.034 C 128.287 155.034,128.085 154.832,128.085 154.428 C 128.085 154.025,127.883 153.823,127.479 153.823 C 127.075 153.823,126.874 153.621,126.874 153.217 C 126.874 152.821,126.672 152.612,126.288 152.612 C 125.967 152.612,125.616 152.337,125.510 152.002 C 125.403 151.666,125.189 151.470,125.033 151.567 C 124.877 151.663,124.662 151.495,124.555 151.193 C 124.447 150.891,123.903 150.201,123.345 149.660 C 122.788 149.119,122.332 148.540,122.332 148.373 C 122.332 148.206,122.059 148.070,121.726 148.070 C 121.322 148.070,121.120 147.868,121.120 147.464 C 121.120 147.060,120.918 146.858,120.515 146.858 C 120.111 146.858,119.909 146.657,119.909 146.253 C 119.909 145.849,119.707 145.647,119.304 145.647 C 118.799 145.647,118.698 145.445,118.698 144.436 C 118.698 143.578,118.570 143.225,118.257 143.225 C 117.994 143.225,117.737 142.799,117.618 142.165 C 117.504 141.558,117.240 141.105,116.999 141.105 C 116.768 141.105,116.578 140.833,116.578 140.500 C 116.578 140.096,116.376 139.894,115.973 139.894 C 115.468 139.894,115.367 139.692,115.367 138.683 C 115.367 137.673,115.266 137.472,114.762 137.472 C 114.229 137.472,114.156 137.270,114.156 135.806 C 114.156 134.343,114.083 134.141,113.550 134.141 C 113.046 134.141,112.945 133.939,112.945 132.930 C 112.945 131.920,112.844 131.718,112.339 131.718 C 111.787 131.718,111.734 131.517,111.734 129.447 C 111.734 127.631,111.643 127.176,111.279 127.176 C 110.885 127.176,110.825 125.932,110.825 117.790 C 110.825 109.648,110.885 108.403,111.279 108.403 C 111.643 108.403,111.734 107.949,111.734 106.132 C 111.734 104.063,111.787 103.861,112.339 103.861 C 112.844 103.861,112.945 103.659,112.945 102.650 C 112.945 101.640,113.046 101.438,113.550 101.438 C 114.083 101.438,114.156 101.236,114.156 99.773 C 114.156 98.309,114.229 98.107,114.762 98.107 C 115.266 98.107,115.367 97.906,115.367 96.896 C 115.367 95.887,115.468 95.685,115.973 95.685 C 116.376 95.685,116.578 95.483,116.578 95.079 C 116.578 94.746,116.768 94.474,116.999 94.474 C 117.237 94.474,117.503 94.028,117.613 93.443 C 117.719 92.877,118.007 92.336,118.252 92.242 C 118.528 92.136,118.698 91.664,118.698 91.001 C 118.698 90.134,118.812 89.932,119.304 89.932 C 119.707 89.932,119.909 89.730,119.909 89.326 C 119.909 88.923,120.111 88.721,120.515 88.721 C 120.918 88.721,121.120 88.519,121.120 88.115 C 121.120 87.711,121.322 87.509,121.726 87.509 C 122.130 87.509,122.332 87.308,122.332 86.904 C 122.332 86.552,122.533 86.298,122.814 86.298 C 123.080 86.298,123.368 86.026,123.455 85.693 C 123.542 85.360,123.802 85.087,124.032 85.087 C 124.263 85.087,124.451 84.883,124.451 84.633 C 124.451 84.383,124.668 84.179,124.934 84.179 C 125.199 84.179,125.488 83.906,125.575 83.573 C 125.662 83.238,125.988 82.967,126.303 82.967 C 126.672 82.967,126.874 82.753,126.874 82.362 C 126.874 81.958,127.075 81.756,127.479 81.756 C 127.883 81.756,128.085 81.554,128.085 81.151 C 128.085 80.747,128.287 80.545,128.690 80.545 C 129.094 80.545,129.296 80.343,129.296 79.939 C 129.296 79.449,129.498 79.334,130.356 79.334 C 131.056 79.334,131.416 79.192,131.416 78.915 C 131.416 78.685,131.688 78.425,132.021 78.338 C 132.354 78.251,132.627 77.962,132.627 77.697 C 132.627 77.345,132.921 77.214,133.715 77.214 C 134.548 77.214,134.840 77.073,134.961 76.609 C 135.080 76.157,135.374 76.003,136.124 76.003 C 136.862 76.003,137.179 75.843,137.320 75.397 C 137.463 74.947,137.778 74.792,138.552 74.792 C 139.123 74.792,139.575 74.690,139.555 74.565 C 139.432 73.782,139.688 73.581,140.802 73.581 C 141.812 73.581,142.014 73.480,142.014 72.975 C 142.014 72.442,142.215 72.369,143.689 72.369 C 144.898 72.369,145.412 72.243,145.538 71.915 C 145.671 71.568,146.240 71.461,147.951 71.461 L 150.189 71.461 150.189 74.215 C 150.189 76.713,150.245 76.983,150.795 77.126 C 151.331 77.267,151.400 77.540,151.400 79.521 C 151.400 81.554,151.455 81.756,152.006 81.756 C 152.569 81.756,152.612 81.958,152.612 84.633 C 152.612 86.988,152.694 87.509,153.066 87.509 C 153.432 87.509,153.520 87.980,153.520 89.932 C 153.520 91.951,153.621 92.455,154.126 92.960 C 154.617 93.452,154.731 93.969,154.731 95.713 C 154.731 97.594,154.805 97.881,155.326 98.017 C 155.854 98.155,155.930 98.484,156.007 100.941 C 156.083 103.362,156.160 103.704,156.624 103.667 C 156.955 103.641,157.154 103.838,157.154 104.191 C 157.154 104.788,158.374 105.289,158.953 104.931 C 159.173 104.795,159.273 97.881,159.273 82.798 L 159.273 60.863 162.301 60.863 C 165.127 60.863,165.329 60.903,165.329 61.469 M79.370 63.512 C 79.515 64.436,79.270 64.497,75.397 64.497 C 72.100 64.497,71.461 64.570,71.461 64.951 C 71.461 65.410,71.012 65.524,69.658 65.409 C 67.860 65.256,64.497 65.763,64.497 66.188 C 64.497 66.565,59.812 66.886,57.911 66.639 C 57.702 66.612,57.532 66.868,57.532 67.209 C 57.532 67.800,57.359 67.827,53.567 67.827 C 49.889 67.827,49.591 67.870,49.448 68.419 C 49.321 68.903,48.982 69.027,47.584 69.100 L 45.874 69.190 45.874 78.880 L 45.874 88.569 49.811 88.569 C 53.108 88.569,53.747 88.496,53.747 88.115 C 53.747 87.742,54.382 87.646,57.305 87.576 C 60.613 87.496,60.863 87.448,60.863 86.894 C 60.863 86.368,61.075 86.298,62.680 86.298 L 64.497 86.298 64.497 127.631 C 64.497 168.761,64.494 168.963,63.891 168.963 C 63.359 168.963,63.285 169.165,63.285 170.628 C 63.285 172.092,63.212 172.294,62.680 172.294 C 62.289 172.294,62.074 172.496,62.074 172.864 C 62.074 173.180,61.804 173.505,61.469 173.593 C 61.034 173.706,60.863 174.006,60.863 174.652 C 60.863 175.299,60.692 175.599,60.257 175.712 C 59.924 175.799,59.652 176.079,59.652 176.333 C 59.652 176.587,59.379 176.881,59.046 176.987 C 58.713 177.093,58.441 177.375,58.441 177.613 C 58.441 177.907,58.099 178.047,57.381 178.047 C 56.523 178.047,56.321 178.162,56.321 178.653 C 56.321 179.146,56.119 179.258,55.233 179.258 C 54.399 179.258,54.108 179.400,53.986 179.864 C 53.866 180.323,53.573 180.469,52.775 180.469 C 51.977 180.469,51.684 180.616,51.564 181.075 C 51.424 181.610,51.151 181.681,49.205 181.681 C 47.259 181.681,46.986 181.610,46.846 181.075 C 46.714 180.569,46.433 180.469,45.146 180.469 C 43.963 180.469,43.603 180.361,43.603 180.006 C 43.603 179.751,43.365 179.453,43.073 179.344 C 42.782 179.236,42.365 178.899,42.148 178.597 C 41.930 178.294,41.560 178.047,41.325 178.047 C 41.081 178.047,40.968 177.863,41.061 177.620 C 41.159 177.363,40.974 177.114,40.597 176.994 C 40.252 176.885,39.970 176.616,39.970 176.396 C 39.970 176.177,39.697 175.927,39.364 175.840 C 38.900 175.718,38.759 175.427,38.759 174.593 C 38.759 173.710,38.645 173.505,38.158 173.505 C 37.574 173.505,37.554 173.254,37.476 164.799 L 37.396 156.094 36.589 156.001 C 35.993 155.932,35.731 156.070,35.585 156.530 C 35.398 157.118,35.158 157.154,31.443 157.154 C 27.753 157.154,27.488 157.193,27.340 157.759 C 27.193 158.320,26.927 158.365,23.735 158.365 C 20.490 158.365,20.288 158.400,20.288 158.970 C 20.288 159.503,20.086 159.576,18.622 159.576 L 16.957 159.576 16.957 169.275 C 16.957 177.617,17.020 178.999,17.411 179.149 C 17.755 179.281,17.865 179.837,17.865 181.438 C 17.865 183.299,17.938 183.573,18.471 183.712 C 18.971 183.843,19.076 184.125,19.076 185.332 C 19.076 186.397,19.226 186.901,19.626 187.189 C 19.929 187.407,20.265 187.824,20.374 188.115 C 20.483 188.407,20.780 188.645,21.035 188.645 C 21.363 188.645,21.499 188.955,21.499 189.705 C 21.499 190.563,21.614 190.765,22.104 190.765 C 22.508 190.765,22.710 190.966,22.710 191.370 C 22.710 191.774,22.912 191.976,23.316 191.976 C 23.719 191.976,23.921 192.178,23.921 192.581 C 23.921 192.918,24.123 193.187,24.375 193.187 C 24.625 193.187,24.830 193.404,24.830 193.670 C 24.830 193.935,25.102 194.223,25.435 194.310 C 25.768 194.398,26.041 194.670,26.041 194.916 C 26.041 195.162,26.313 195.435,26.646 195.522 C 26.980 195.609,27.252 195.869,27.252 196.099 C 27.252 196.329,27.525 196.518,27.858 196.518 C 28.261 196.518,28.463 196.720,28.463 197.123 C 28.463 197.527,28.665 197.729,29.069 197.729 C 29.611 197.729,29.816 198.044,29.710 198.713 C 29.691 198.838,30.142 198.940,30.714 198.940 C 31.487 198.940,31.802 199.095,31.945 199.546 C 32.107 200.053,32.404 200.151,33.783 200.151 C 35.226 200.151,35.428 200.226,35.428 200.757 C 35.428 201.308,35.630 201.363,37.663 201.363 C 39.644 201.363,39.917 201.432,40.057 201.968 C 40.332 203.016,52.687 202.831,52.687 201.779 C 52.687 201.463,53.230 201.363,54.938 201.363 C 56.903 201.363,57.212 201.288,57.376 200.772 C 57.524 200.304,57.890 200.163,59.137 200.091 C 60.288 200.025,60.712 199.879,60.712 199.550 C 60.712 199.302,60.984 199.059,61.317 199.008 C 62.854 198.776,63.285 198.594,63.285 198.177 C 63.285 197.901,63.575 197.729,64.040 197.729 C 64.466 197.729,64.959 197.466,65.172 197.123 C 65.380 196.790,65.790 196.518,66.083 196.518 C 66.376 196.518,66.616 196.330,66.616 196.101 C 66.616 195.872,67.009 195.607,67.488 195.511 C 67.968 195.415,68.547 195.152,68.775 194.926 C 69.003 194.700,69.428 194.425,69.720 194.315 C 70.011 194.205,70.250 193.906,70.250 193.651 C 70.250 193.396,70.454 193.187,70.704 193.187 C 70.956 193.187,71.158 192.918,71.158 192.581 C 71.158 192.178,71.360 191.976,71.764 191.976 C 72.168 191.976,72.369 191.774,72.369 191.370 C 72.369 190.966,72.571 190.765,72.975 190.765 C 73.379 190.765,73.581 190.563,73.581 190.159 C 73.581 189.755,73.782 189.553,74.186 189.553 C 74.519 189.553,74.792 189.365,74.792 189.134 C 74.792 188.904,75.064 188.644,75.397 188.557 C 75.731 188.470,76.003 188.182,76.003 187.916 C 76.003 187.651,76.212 187.434,76.467 187.434 C 76.722 187.434,77.018 187.195,77.125 186.904 C 77.232 186.612,77.501 186.265,77.721 186.132 C 77.942 185.999,78.123 185.420,78.123 184.845 C 78.123 184.002,78.240 183.800,78.728 183.800 C 79.132 183.800,79.334 183.598,79.334 183.195 C 79.334 182.791,79.536 182.589,79.939 182.589 C 80.426 182.589,80.545 182.387,80.545 181.564 C 80.545 180.806,80.697 180.500,81.130 180.387 C 81.557 180.275,81.742 179.917,81.812 179.065 C 81.872 178.329,82.048 177.924,82.286 177.971 C 82.494 178.013,82.673 178.013,82.684 177.971 C 82.694 177.930,82.779 177.215,82.872 176.384 C 82.984 175.389,83.237 174.736,83.611 174.474 C 84.073 174.150,84.179 173.687,84.179 171.974 C 84.179 170.307,84.273 169.871,84.633 169.871 C 85.035 169.871,85.087 163.748,85.087 116.578 L 85.087 63.285 82.210 63.285 C 80.628 63.285,79.350 63.388,79.370 63.512 M310.156 172.899 C 310.010 173.459,309.743 173.505,306.674 173.505 C 303.604 173.505,303.338 173.551,303.191 174.111 C 303.045 174.672,302.778 174.716,299.568 174.716 C 297.507 174.716,296.174 174.830,296.278 174.998 C 296.599 175.517,295.863 175.657,292.430 175.729 C 290.554 175.768,288.850 175.905,288.643 176.033 C 288.220 176.295,288.072 202.237,288.494 202.311 C 290.112 202.598,291.384 202.450,291.512 201.960 C 291.590 201.662,291.913 201.351,292.231 201.268 C 292.549 201.184,292.808 200.909,292.808 200.654 C 292.808 200.400,293.083 200.105,293.418 199.999 C 293.754 199.892,293.945 199.669,293.842 199.504 C 293.740 199.338,293.942 199.127,294.292 199.036 C 294.654 198.941,294.928 198.624,294.928 198.299 C 294.928 197.931,295.142 197.729,295.534 197.729 C 295.937 197.729,296.139 197.527,296.139 197.123 C 296.139 196.720,296.341 196.518,296.745 196.518 C 297.081 196.518,297.350 196.316,297.350 196.064 C 297.350 195.814,297.568 195.609,297.833 195.609 C 298.098 195.609,298.387 195.337,298.474 195.004 C 298.562 194.669,298.887 194.398,299.203 194.398 C 299.571 194.398,299.773 194.184,299.773 193.793 C 299.773 193.440,299.975 193.187,300.255 193.187 C 300.521 193.187,300.809 192.914,300.896 192.581 C 300.983 192.248,301.243 191.976,301.474 191.976 C 301.704 191.976,301.893 191.703,301.893 191.370 C 301.893 190.966,302.094 190.765,302.498 190.765 C 302.902 190.765,303.104 190.563,303.104 190.159 C 303.104 189.755,303.306 189.553,303.709 189.553 C 304.042 189.553,304.315 189.365,304.315 189.134 C 304.315 188.904,304.587 188.644,304.921 188.557 C 305.254 188.470,305.526 188.182,305.526 187.916 C 305.526 187.636,305.779 187.434,306.132 187.434 C 306.535 187.434,306.737 187.232,306.737 186.828 C 306.737 186.476,306.939 186.223,307.220 186.223 C 307.485 186.223,307.774 185.950,307.861 185.617 C 307.948 185.284,308.208 185.011,308.438 185.011 C 308.668 185.011,308.857 184.739,308.857 184.406 C 308.857 184.002,309.059 183.800,309.463 183.800 C 309.866 183.800,310.068 183.598,310.068 183.195 C 310.068 182.791,310.270 182.589,310.674 182.589 C 311.010 182.589,311.279 182.387,311.279 182.135 C 311.279 181.882,311.548 181.681,311.885 181.681 C 312.289 181.681,312.491 181.479,312.491 181.075 C 312.491 180.671,312.692 180.469,313.096 180.469 C 313.500 180.469,313.702 180.267,313.702 179.864 C 313.702 179.460,313.904 179.258,314.307 179.258 C 314.711 179.258,314.913 179.056,314.913 178.653 C 314.913 178.316,315.115 178.047,315.367 178.047 C 315.619 178.047,315.821 177.778,315.821 177.441 C 315.821 177.038,316.023 176.836,316.427 176.836 C 316.831 176.836,317.033 176.634,317.033 176.230 C 317.033 175.826,317.234 175.625,317.638 175.625 C 317.975 175.625,318.244 175.423,318.244 175.170 C 318.244 174.918,318.513 174.716,318.849 174.716 C 319.354 174.716,319.455 174.514,319.455 173.505 L 319.455 172.294 314.885 172.294 C 310.569 172.294,310.305 172.327,310.156 172.899 M98.107 206.542 C 98.107 207.072,97.842 207.116,94.625 207.116 C 91.345 207.116,91.143 207.151,91.143 207.721 C 91.143 208.297,90.941 208.327,87.055 208.327 C 83.169 208.327,82.967 208.357,82.967 208.933 C 82.967 209.503,82.766 209.538,79.485 209.538 C 76.665 209.538,76.003 209.621,76.003 209.972 C 76.003 210.211,75.731 210.492,75.397 210.598 C 74.547 210.868,74.516 212.869,75.362 212.869 C 75.676 212.869,75.999 213.125,76.081 213.437 C 76.179 213.811,76.502 214.005,77.029 214.005 C 77.556 214.005,78.182 214.380,78.868 215.107 C 79.439 215.713,80.323 216.292,80.832 216.393 C 81.340 216.495,81.756 216.766,81.756 216.995 C 81.756 217.224,82.029 217.411,82.362 217.411 C 82.766 217.411,82.967 217.613,82.967 218.017 C 82.967 218.505,83.169 218.622,84.007 218.622 C 84.780 218.622,85.095 218.777,85.238 219.228 C 85.381 219.679,85.697 219.833,86.470 219.833 C 87.219 219.833,87.509 219.968,87.509 220.316 C 87.509 220.581,87.769 220.867,88.087 220.950 C 88.405 221.033,88.733 221.361,88.816 221.678 C 88.929 222.111,89.239 222.256,90.055 222.256 C 90.941 222.256,91.143 222.368,91.143 222.861 C 91.143 223.195,91.333 223.467,91.565 223.467 C 91.797 223.467,92.065 223.671,92.161 223.921 C 92.270 224.206,92.733 224.375,93.405 224.375 C 94.272 224.375,94.474 224.490,94.474 224.981 C 94.474 225.385,94.676 225.587,95.079 225.587 C 95.483 225.587,95.685 225.789,95.685 226.192 C 95.685 226.697,95.887 226.798,96.896 226.798 C 97.906 226.798,98.107 226.899,98.107 227.403 C 98.107 227.737,98.303 228.009,98.541 228.009 C 98.780 228.009,99.062 228.282,99.167 228.615 C 99.310 229.065,99.625 229.220,100.399 229.220 C 101.148 229.220,101.438 229.355,101.438 229.703 C 101.438 229.968,101.711 230.257,102.044 230.344 C 102.377 230.431,102.650 230.691,102.650 230.921 C 102.650 231.227,103.099 231.340,104.315 231.340 L 105.980 231.340 105.980 218.609 L 105.980 205.878 102.044 205.923 C 98.397 205.964,98.107 206.010,98.107 206.542 " stroke="none" fill="#ec3c44" fill-rule="evenodd"></path><path id="path2" d="" stroke="none" fill="#4480f8" fill-rule="evenodd"></path><path id="path3" d="" stroke="none" fill="#b480a0" fill-rule="evenodd"></path><path id="path4" d="" stroke="none" fill="#b48444" fill-rule="evenodd"></path></g></svg>